<svg width="12" height="8" viewBox="0 0 12 8" fill="none" xmlns="http://www.w3.org/2000/svg">
<path d="M1.11086 4.6594C1.05957 4.81502 0.955702 4.94228 0.821324 5.01415C0.686947 5.08601 0.532651 5.09681 0.391223 5.04425C0.249794 4.99169 0.132379 4.87992 0.0639256 4.73268C-0.00452794 4.58544 -0.0186247 4.41434 0.0246306 4.25573C0.0131725 4.29393 0.0246306 4.25446 0.0246306 4.25446C0.0450617 4.18436 0.0687742 4.11551 0.0956711 4.04816C0.141504 3.92719 0.209107 3.76037 0.301918 3.563C0.489831 3.16824 0.785451 2.64232 1.21857 2.1164C2.09741 1.05311 3.53311 0 5.72391 0C7.91585 0 9.35155 1.05311 10.2281 2.1164C10.6961 2.68677 11.0755 3.33958 11.351 4.04816C11.3739 4.10802 11.3911 4.1564 11.4026 4.19206C11.4071 4.20225 11.4186 4.26846 11.4301 4.33213C11.4404 4.39071 11.4495 4.44674 11.453 4.45693C11.453 4.45693 11.5492 4.88097 11.0611 5.06052C10.9174 5.11387 10.7604 5.10175 10.6247 5.02681C10.489 4.95187 10.3855 4.82022 10.337 4.66067V4.65685L10.3289 4.63648C10.2714 4.4729 10.2056 4.31304 10.1319 4.15768C9.92847 3.73054 9.67705 3.33388 9.38364 2.97723C8.68469 2.13041 7.54231 1.27341 5.72391 1.27341C3.9055 1.27341 2.76312 2.13041 2.06418 2.97723C1.68576 3.43829 1.37803 3.96528 1.15326 4.53715C1.14123 4.57002 1.12977 4.60313 1.11888 4.63648L1.11086 4.6594Z" fill="white"/>
<path d="M3.43234 5.09366C3.43234 4.4182 3.67378 3.77041 4.10354 3.29279C4.53331 2.81517 5.11619 2.54684 5.72397 2.54684C6.33175 2.54684 6.91463 2.81517 7.3444 3.29279C7.77416 3.77041 8.0156 4.4182 8.0156 5.09366C8.0156 5.76912 7.77416 6.41691 7.3444 6.89453C6.91463 7.37215 6.33175 7.64048 5.72397 7.64048C5.11619 7.64048 4.53331 7.37215 4.10354 6.89453C3.67378 6.41691 3.43234 5.76912 3.43234 5.09366Z" fill="white"/>
</svg>
