<svg width="12" height="12" viewBox="0 0 12 12" fill="none" xmlns="http://www.w3.org/2000/svg">
<path d="M11.5 7.60999C11.295 7.60999 11.125 7.77999 11.125 7.98499C11.125 9.46499 10.095 10.705 8.71003 11.03L8.84503 10.805C8.95003 10.625 8.89503 10.395 8.71503 10.29C8.54003 10.185 8.30503 10.24 8.20003 10.42L7.67503 11.295C7.60503 11.41 7.60503 11.555 7.67003 11.67C7.73503 11.79 7.86003 11.86 7.99503 11.86C10.13 11.86 11.87 10.12 11.87 7.98499C11.875 7.77999 11.705 7.60999 11.5 7.60999Z" fill="#2B64E3"/>
<path d="M4 0.109985C1.865 0.109985 0.125 1.84999 0.125 3.98499C0.125 4.18999 0.295 4.35999 0.5 4.35999C0.705 4.35999 0.875 4.18999 0.875 3.98499C0.875 2.50499 1.905 1.26499 3.29 0.939985L3.155 1.16499C3.05 1.34499 3.105 1.57499 3.285 1.67999C3.46 1.78499 3.695 1.72999 3.8 1.54999L4.325 0.674985C4.39 0.559985 4.395 0.419985 4.325 0.299985C4.26 0.184985 4.135 0.109985 4 0.109985Z" fill="#2B64E3"/>
<path d="M10.75 4.335C10.75 5.875 9.63 7.145 8.165 7.38C8.165 7.375 8.165 7.375 8.165 7.37C8.02 5.505 6.51 3.985 4.62 3.835C4.855 2.37 6.125 1.25 7.665 1.25C9.37 1.25 10.75 2.63 10.75 4.335Z" fill="#2B64E3"/>
<path d="M4.905 7.09997C4.905 7.02497 4.82 6.90997 4.715 6.90997H3.685V7.28497H4.715C4.82 7.28997 4.905 7.20497 4.905 7.09997Z" fill="#2B64E3"/>
<path d="M4.915 8.03998H4.715H3.685V8.41498H4.92C5.08 8.41498 5.19 8.31498 5.19 8.22498C5.19 8.13498 5.075 8.03998 4.915 8.03998Z" fill="#2B64E3"/>
<path d="M7.415 7.42501C7.3 5.91001 6.09 4.70001 4.575 4.58501C4.495 4.58001 4.42 4.57501 4.335 4.57501C2.63 4.57501 1.25 5.95501 1.25 7.66501C1.25 9.37001 2.63 10.75 4.335 10.75C6.04 10.75 7.425 9.37001 7.425 7.66501C7.425 7.58001 7.42 7.50501 7.415 7.42501ZM4.915 9.16501H4.585V9.35501C4.585 9.56001 4.415 9.73001 4.21 9.73001C4.005 9.73001 3.835 9.56001 3.835 9.35501V9.16501H3.31C3.105 9.16501 2.935 8.99501 2.935 8.79001V7.66501V6.54001C2.935 6.33501 3.105 6.16501 3.31 6.16501H3.835V5.97501C3.835 5.77001 4.005 5.60001 4.21 5.60001C4.415 5.60001 4.585 5.77001 4.585 5.97501V6.16501H4.715C5.215 6.16501 5.655 6.60501 5.655 7.10501C5.655 7.25001 5.62 7.38501 5.56 7.51001C5.79 7.68001 5.935 7.94001 5.935 8.23001C5.935 8.74501 5.48 9.16501 4.915 9.16501Z" fill="#2B64E3"/>
</svg>
