<svg width="22" height="21" viewBox="0 0 22 21" fill="none" xmlns="http://www.w3.org/2000/svg">
<path fill-rule="evenodd" clip-rule="evenodd" d="M1 19.25C0.585786 19.25 0.25 19.5858 0.25 20C0.25 20.4142 0.585786 20.75 1 20.75H21C21.4142 20.75 21.75 20.4142 21.75 20C21.75 19.5858 21.4142 19.25 21 19.25H20H17.5H16V14C16 12.1144 16 11.1716 15.4142 10.5858C14.8284 10 13.8856 10 12 10H10C8.11438 10 7.17157 10 6.58579 10.5858C6 11.1716 6 12.1144 6 14V19.25H4.5H2H1ZM8.25 13C8.25 12.5858 8.58579 12.25 9 12.25H13C13.4142 12.25 13.75 12.5858 13.75 13C13.75 13.4142 13.4142 13.75 13 13.75H9C8.58579 13.75 8.25 13.4142 8.25 13ZM8.25 16C8.25 15.5858 8.58579 15.25 9 15.25H13C13.4142 15.25 13.75 15.5858 13.75 16C13.75 16.4142 13.4142 16.75 13 16.75H9C8.58579 16.75 8.25 16.4142 8.25 16Z" fill="black"/>
<g opacity="0.5">
<path d="M7 2.5C7.94281 2.5 8.41421 2.5 8.70711 2.79289C9 3.08579 9 3.55719 9 4.5L8.99999 6.29243C9.15677 6.36863 9.29312 6.46469 9.41421 6.58579C9.8183 6.98987 9.94364 7.56385 9.98252 8.49999V10C8.10855 10 7.16976 10.0018 6.58579 10.5858C6 11.1716 6 12.1144 6 14V19.25H2V10C2 8.11438 2 7.17157 2.58579 6.58579C2.70688 6.46469 2.84322 6.36864 3 6.29243V4.5C3 3.55719 3 3.08579 3.29289 2.79289C3.58579 2.5 4.05719 2.5 5 2.5H5.25V1C5.25 0.585786 5.58579 0.25 6 0.25C6.41421 0.25 6.75 0.585786 6.75 1V2.5H7Z" fill="black"/>
<path d="M19.6439 3.24676C19.2877 2.73284 18.66 2.49743 17.4045 2.02663C14.9493 1.10592 13.7216 0.645553 12.8608 1.2421C12 1.83864 12 3.14974 12 5.77195V10C13.8856 10 14.8284 10 15.4142 10.5858C16 11.1716 16 12.1144 16 14V19.25H20V5.77195C20 4.4311 20 3.76068 19.6439 3.24676Z" fill="black"/>
</g>
</svg>
