<svg width="24" height="24" viewBox="0 0 24 24" fill="none" xmlns="http://www.w3.org/2000/svg">
<path d="M16.2084 11.5521C18.3025 11.5521 20 9.86152 20 7.77606C20 5.6906 18.3025 4 16.2084 4C14.1144 4 12.4169 5.6906 12.4169 7.77606C12.4169 8.74203 12.8578 9.44455 12.8578 9.44455L8.27264 14.011C8.0669 14.2159 7.77886 14.7486 8.27264 15.2404L8.8017 15.7673C9.00743 15.9429 9.52471 16.1888 9.94796 15.7673L10.5652 15.1526C11.1824 15.7673 11.8878 15.416 12.1523 15.0647C12.5932 14.45 12.0642 13.8353 12.0642 13.8353L12.2405 13.6597C13.087 14.5027 13.8277 14.011 14.0922 13.6597C14.5331 13.045 14.0922 12.4303 14.0922 12.4303C13.9159 12.079 13.5632 12.079 14.004 11.64L14.5331 11.113C14.9564 11.4643 15.8264 11.5521 16.2084 11.5521Z" stroke="#1C274C" stroke-width="1.2" stroke-linejoin="round"/>
<path d="M20 14.3944C19.9489 16.6296 19.7354 17.9352 18.8433 18.8272C17.6706 20 15.7831 20 12.008 20C8.23301 20 6.3455 20 5.17275 18.8272C4 17.6545 4 15.767 4 11.992C4 8.21693 4 6.32942 5.17275 5.15667C6.06479 4.26462 7.37038 4.05111 9.60563 4" stroke="#1C274C" stroke-width="1.2" stroke-linecap="round"/>
</svg>
