<svg width="107" height="17" viewBox="0 0 107 17" fill="none" xmlns="http://www.w3.org/2000/svg">
<path d="M9.38657 6.5121H8.36549C8.30511 6.2184 8.19943 5.96039 8.04847 5.73806C7.90024 5.51573 7.71908 5.32908 7.50499 5.17811C7.29363 5.0244 7.05895 4.90912 6.80093 4.83226C6.54292 4.75541 6.27393 4.71698 5.99395 4.71698C5.48341 4.71698 5.02091 4.84598 4.60644 5.104C4.19471 5.36201 3.8667 5.74218 3.62241 6.24448C3.38086 6.74679 3.26009 7.363 3.26009 8.09313C3.26009 8.82326 3.38086 9.43947 3.62241 9.94178C3.8667 10.4441 4.19471 10.8242 4.60644 11.0823C5.02091 11.3403 5.48341 11.4693 5.99395 11.4693C6.27393 11.4693 6.54292 11.4309 6.80093 11.354C7.05895 11.2771 7.29363 11.1632 7.50499 11.0123C7.71908 10.8586 7.90024 10.6705 8.04847 10.4482C8.19943 10.2231 8.30511 9.96511 8.36549 9.67416H9.38657C9.30972 10.1051 9.16973 10.4907 8.96661 10.8311C8.7635 11.1715 8.51097 11.461 8.20904 11.6998C7.90711 11.9359 7.56812 12.1157 7.19207 12.2392C6.81878 12.3627 6.4194 12.4245 5.99395 12.4245C5.2748 12.4245 4.63526 12.2488 4.07531 11.8975C3.51536 11.5461 3.07482 11.0466 2.75367 10.3988C2.43252 9.75101 2.27195 8.98246 2.27195 8.09313C2.27195 7.2038 2.43252 6.43525 2.75367 5.78746C3.07482 5.13968 3.51536 4.64012 4.07531 4.28878C4.63526 3.93744 5.2748 3.76177 5.99395 3.76177C6.4194 3.76177 6.81878 3.82353 7.19207 3.94705C7.56812 4.07057 7.90711 4.25173 8.20904 4.49053C8.51097 4.72658 8.7635 5.01479 8.96661 5.35515C9.16973 5.69277 9.30972 6.07842 9.38657 6.5121ZM13.474 12.441C12.9031 12.441 12.4021 12.3051 11.9712 12.0333C11.543 11.7616 11.2081 11.3814 10.9666 10.8929C10.7278 10.4043 10.6084 9.83336 10.6084 9.18009C10.6084 8.52133 10.7278 7.94628 10.9666 7.45495C11.2081 6.96363 11.543 6.5821 11.9712 6.31036C12.4021 6.03862 12.9031 5.90275 13.474 5.90275C14.0449 5.90275 14.5445 6.03862 14.9727 6.31036C15.4036 6.5821 15.7385 6.96363 15.9773 7.45495C16.2188 7.94628 16.3396 8.52133 16.3396 9.18009C16.3396 9.83336 16.2188 10.4043 15.9773 10.8929C15.7385 11.3814 15.4036 11.7616 14.9727 12.0333C14.5445 12.3051 14.0449 12.441 13.474 12.441ZM13.474 11.5681C13.9077 11.5681 14.2645 11.4569 14.5445 11.2346C14.8244 11.0123 15.0317 10.7199 15.1662 10.3576C15.3007 9.9953 15.3679 9.60279 15.3679 9.18009C15.3679 8.75738 15.3007 8.3635 15.1662 7.99843C15.0317 7.63337 14.8244 7.3383 14.5445 7.11322C14.2645 6.88815 13.9077 6.77561 13.474 6.77561C13.0403 6.77561 12.6835 6.88815 12.4035 7.11322C12.1235 7.3383 11.9163 7.63337 11.7818 7.99843C11.6473 8.3635 11.58 8.75738 11.58 9.18009C11.58 9.60279 11.6473 9.9953 11.7818 10.3576C11.9163 10.7199 12.1235 11.0123 12.4035 11.2346C12.6835 11.4569 13.0403 11.5681 13.474 11.5681ZM17.8228 14.6807V5.98509H18.7616V6.9897H18.8769C18.9482 6.87991 19.047 6.73992 19.1733 6.56974C19.3023 6.39682 19.4862 6.24311 19.725 6.10861C19.9666 5.97137 20.2932 5.90275 20.7049 5.90275C21.2374 5.90275 21.7068 6.03587 22.113 6.30212C22.5193 6.56837 22.8363 6.94579 23.0641 7.43437C23.2919 7.92295 23.4058 8.49937 23.4058 9.16362C23.4058 9.83336 23.2919 10.4139 23.0641 10.9052C22.8363 11.3938 22.5206 11.7726 22.1171 12.0416C21.7137 12.3078 21.2484 12.441 20.7214 12.441C20.3152 12.441 19.9899 12.3737 19.7456 12.2392C19.5013 12.102 19.3133 11.9469 19.1815 11.774C19.0498 11.5983 18.9482 11.4528 18.8769 11.3375H18.7945V14.6807H17.8228ZM18.778 9.14715C18.778 9.62475 18.848 10.0461 18.988 10.4111C19.128 10.7735 19.3325 11.0576 19.6015 11.2634C19.8705 11.4665 20.1999 11.5681 20.5896 11.5681C20.9959 11.5681 21.3349 11.461 21.6066 11.247C21.8811 11.0301 22.0869 10.7392 22.2242 10.3741C22.3642 10.0063 22.4342 9.5973 22.4342 9.14715C22.4342 8.70248 22.3655 8.30174 22.2283 7.94491C22.0938 7.58533 21.8893 7.30124 21.6148 7.09264C21.3431 6.88128 21.0014 6.77561 20.5896 6.77561C20.1944 6.77561 19.8623 6.87579 19.5933 7.07617C19.3243 7.2738 19.1211 7.55102 18.9839 7.90785C18.8467 8.26194 18.778 8.67504 18.778 9.14715ZM25.2874 14.6807C25.1227 14.6807 24.9759 14.667 24.8469 14.6396C24.7179 14.6149 24.6287 14.5902 24.5793 14.5655L24.8263 13.7091C25.0624 13.7695 25.271 13.7914 25.4521 13.7749C25.6333 13.7585 25.7939 13.6775 25.9338 13.532C26.0766 13.3893 26.207 13.1574 26.325 12.8362L26.5061 12.3421L24.1675 5.98509H25.2216L26.9673 11.0246H27.0331L28.7789 5.98509H29.8329L27.1484 13.2315C27.0277 13.5581 26.8781 13.8285 26.6997 14.0426C26.5212 14.2594 26.314 14.42 26.0779 14.5243C25.8446 14.6286 25.5811 14.6807 25.2874 14.6807ZM36.2373 12.4574C35.8365 12.4574 35.4728 12.3819 35.1462 12.231C34.8196 12.0773 34.5602 11.8563 34.368 11.5681C34.1759 11.2771 34.0798 10.9258 34.0798 10.5141C34.0798 10.1518 34.1512 9.85806 34.2939 9.63299C34.4367 9.40516 34.6274 9.22675 34.8662 9.09774C35.105 8.96873 35.3685 8.87266 35.6567 8.80953C35.9477 8.74366 36.24 8.69151 36.5337 8.65308C36.918 8.60367 37.2295 8.56661 37.4683 8.54191C37.7099 8.51446 37.8856 8.46917 37.9954 8.40604C38.1079 8.34291 38.1642 8.23312 38.1642 8.07666V8.04372C38.1642 7.63749 38.053 7.32183 37.8307 7.09675C37.6111 6.87168 37.2776 6.75914 36.8302 6.75914C36.3663 6.75914 36.0026 6.8607 35.7391 7.06382C35.4756 7.26693 35.2903 7.48378 35.1833 7.71434L34.261 7.38496C34.4257 7.00068 34.6453 6.7015 34.9198 6.4874C35.197 6.27056 35.4989 6.11959 35.8256 6.0345C36.1549 5.94667 36.4788 5.90275 36.7972 5.90275C37.0003 5.90275 37.2337 5.92745 37.4972 5.97686C37.7634 6.02352 38.0201 6.12096 38.2671 6.26918C38.5169 6.41741 38.7241 6.64111 38.8888 6.9403C39.0535 7.23948 39.1358 7.64023 39.1358 8.14254V12.3092H38.1642V11.4528H38.1148C38.0489 11.5901 37.9391 11.7369 37.7854 11.8934C37.6317 12.0498 37.4272 12.1829 37.1719 12.2927C36.9166 12.4025 36.6051 12.4574 36.2373 12.4574ZM36.3855 11.5846C36.7698 11.5846 37.0937 11.5091 37.3572 11.3581C37.6234 11.2072 37.8238 11.0123 37.9583 10.7735C38.0955 10.5347 38.1642 10.2835 38.1642 10.02V9.13068C38.123 9.18009 38.0324 9.22538 37.8924 9.26655C37.7552 9.30498 37.596 9.33929 37.4148 9.36948C37.2364 9.39693 37.0621 9.42163 36.8919 9.44359C36.7245 9.46281 36.5886 9.47927 36.4843 9.493C36.2318 9.52594 35.9957 9.57946 35.7762 9.65357C35.5593 9.72494 35.3836 9.83336 35.2491 9.97884C35.1174 10.1216 35.0515 10.3165 35.0515 10.5635C35.0515 10.9011 35.1764 11.1564 35.4262 11.3293C35.6787 11.4995 35.9985 11.5846 36.3855 11.5846ZM43.2974 12.441C42.7703 12.441 42.3051 12.3078 41.9016 12.0416C41.4981 11.7726 41.1825 11.3938 40.9546 10.9052C40.7268 10.4139 40.6129 9.83336 40.6129 9.16362C40.6129 8.49937 40.7268 7.92295 40.9546 7.43437C41.1825 6.94579 41.4995 6.56837 41.9057 6.30212C42.312 6.03587 42.7813 5.90275 43.3138 5.90275C43.7255 5.90275 44.0508 5.97137 44.2896 6.10861C44.5312 6.24311 44.7151 6.39682 44.8413 6.56974C44.9703 6.73992 45.0705 6.87991 45.1419 6.9897H45.2242V3.87706H46.1959V12.3092H45.2572V11.3375H45.1419C45.0705 11.4528 44.969 11.5983 44.8372 11.774C44.7055 11.9469 44.5174 12.102 44.2731 12.2392C44.0289 12.3737 43.7036 12.441 43.2974 12.441ZM43.4291 11.5681C43.8189 11.5681 44.1483 11.4665 44.4172 11.2634C44.6862 11.0576 44.8907 10.7735 45.0307 10.4111C45.1707 10.0461 45.2407 9.62475 45.2407 9.14715C45.2407 8.67504 45.1721 8.26194 45.0348 7.90785C44.8976 7.55102 44.6945 7.2738 44.4255 7.07617C44.1565 6.87579 43.8244 6.77561 43.4291 6.77561C43.0174 6.77561 42.6743 6.88128 42.3998 7.09264C42.1281 7.30124 41.9236 7.58533 41.7863 7.94491C41.6518 8.30174 41.5846 8.70248 41.5846 9.14715C41.5846 9.5973 41.6532 10.0063 41.7904 10.3741C41.9304 10.7392 42.1363 11.0301 42.408 11.247C42.6825 11.461 43.0229 11.5681 43.4291 11.5681ZM50.4984 12.441C49.9714 12.441 49.5062 12.3078 49.1027 12.0416C48.6992 11.7726 48.3835 11.3938 48.1557 10.9052C47.9279 10.4139 47.814 9.83336 47.814 9.16362C47.814 8.49937 47.9279 7.92295 48.1557 7.43437C48.3835 6.94579 48.7006 6.56837 49.1068 6.30212C49.513 6.03587 49.9824 5.90275 50.5149 5.90275C50.9266 5.90275 51.2519 5.97137 51.4907 6.10861C51.7322 6.24311 51.9162 6.39682 52.0424 6.56974C52.1714 6.73992 52.2716 6.87991 52.343 6.9897H52.4253V3.87706H53.397V12.3092H52.4583V11.3375H52.343C52.2716 11.4528 52.17 11.5983 52.0383 11.774C51.9065 11.9469 51.7185 12.102 51.4742 12.2392C51.2299 12.3737 50.9047 12.441 50.4984 12.441ZM50.6302 11.5681C51.02 11.5681 51.3493 11.4665 51.6183 11.2634C51.8873 11.0576 52.0918 10.7735 52.2318 10.4111C52.3718 10.0461 52.4418 9.62475 52.4418 9.14715C52.4418 8.67504 52.3732 8.26194 52.2359 7.90785C52.0987 7.55102 51.8956 7.2738 51.6266 7.07617C51.3576 6.87579 51.0255 6.77561 50.6302 6.77561C50.2185 6.77561 49.8754 6.88128 49.6009 7.09264C49.3291 7.30124 49.1247 7.58533 48.9874 7.94491C48.8529 8.30174 48.7857 8.70248 48.7857 9.14715C48.7857 9.5973 48.8543 10.0063 48.9915 10.3741C49.1315 10.7392 49.3374 11.0301 49.6091 11.247C49.8836 11.461 50.224 11.5681 50.6302 11.5681ZM55.3115 12.3092V5.98509H56.2503V6.9403H56.3161C56.4314 6.62739 56.64 6.37349 56.942 6.1786C57.2439 5.98372 57.5842 5.88628 57.963 5.88628C58.0344 5.88628 58.1236 5.88765 58.2307 5.8904C58.3377 5.89314 58.4187 5.89726 58.4736 5.90275V6.89089C58.4406 6.88266 58.3652 6.8703 58.2471 6.85383C58.1318 6.83462 58.0097 6.82501 57.8807 6.82501C57.5733 6.82501 57.2988 6.88952 57.0572 7.01853C56.8184 7.14479 56.629 7.32046 56.4891 7.54553C56.3518 7.76787 56.2832 8.02176 56.2832 8.30723V12.3092H55.3115ZM62.0844 12.441C61.4751 12.441 60.9494 12.3065 60.5075 12.0375C60.0683 11.7657 59.7293 11.3869 59.4905 10.9011C59.2545 10.4125 59.1365 9.84434 59.1365 9.19656C59.1365 8.54877 59.2545 7.97785 59.4905 7.48378C59.7293 6.98696 60.0615 6.59994 60.4869 6.32271C60.9151 6.04273 61.4147 5.90275 61.9856 5.90275C62.315 5.90275 62.6402 5.95764 62.9614 6.06744C63.2825 6.17723 63.5749 6.35565 63.8384 6.60268C64.1019 6.84697 64.3118 7.17086 64.4683 7.57436C64.6248 7.97785 64.703 8.47466 64.703 9.0648V9.47653H59.8282V8.63661H63.7148C63.7148 8.27978 63.6435 7.96138 63.5007 7.6814C63.3608 7.40143 63.1604 7.18047 62.8996 7.01853C62.6416 6.85658 62.3369 6.77561 61.9856 6.77561C61.5986 6.77561 61.2637 6.87168 60.981 7.06382C60.701 7.25321 60.4855 7.50024 60.3346 7.80492C60.1836 8.1096 60.1081 8.43624 60.1081 8.78483V9.34478C60.1081 9.82238 60.1905 10.2272 60.3552 10.5594C60.5226 10.8887 60.7545 11.1399 61.051 11.3128C61.3474 11.483 61.6919 11.5681 62.0844 11.5681C62.3397 11.5681 62.5702 11.5324 62.7761 11.461C62.9847 11.3869 63.1645 11.2771 63.3155 11.1317C63.4664 10.9834 63.5831 10.7995 63.6654 10.58L64.6042 10.8435C64.5054 11.1619 64.3393 11.4418 64.106 11.6834C63.8727 11.9222 63.5845 12.1088 63.2414 12.2433C62.8983 12.3751 62.5126 12.441 62.0844 12.441ZM70.6607 7.40143L69.7878 7.64847C69.7329 7.50299 69.6519 7.36163 69.5449 7.22439C69.4406 7.0844 69.2978 6.96912 69.1167 6.87854C68.9355 6.78796 68.7036 6.74267 68.4209 6.74267C68.0339 6.74267 67.7113 6.83188 67.4533 7.01029C67.198 7.18596 67.0704 7.40966 67.0704 7.6814C67.0704 7.92295 67.1582 8.11372 67.3339 8.2537C67.5096 8.39369 67.7841 8.51035 68.1574 8.60367L69.0961 8.83424C69.6615 8.97148 70.0829 9.18146 70.3601 9.46418C70.6373 9.74415 70.7759 10.1051 70.7759 10.547C70.7759 10.9093 70.6716 11.2332 70.463 11.5187C70.2572 11.8042 69.969 12.0292 69.5984 12.1939C69.2279 12.3586 68.7969 12.441 68.3056 12.441C67.6606 12.441 67.1267 12.301 66.704 12.021C66.2813 11.741 66.0136 11.332 65.9011 10.7941L66.8234 10.5635C66.9112 10.9038 67.0773 11.1591 67.3216 11.3293C67.5686 11.4995 67.8911 11.5846 68.2891 11.5846C68.742 11.5846 69.1016 11.4885 69.3678 11.2964C69.6368 11.1015 69.7713 10.8682 69.7713 10.5964C69.7713 10.3768 69.6945 10.1929 69.5408 10.0447C69.3871 9.89375 69.151 9.78121 68.8326 9.7071L67.7786 9.46006C67.1994 9.32282 66.774 9.11009 66.5022 8.82189C66.2332 8.53093 66.0987 8.16724 66.0987 7.73081C66.0987 7.37398 66.1989 7.05833 66.3993 6.78384C66.6024 6.50936 66.8783 6.29389 67.2269 6.13743C67.5782 5.98098 67.9762 5.90275 68.4209 5.90275C69.0467 5.90275 69.538 6.03999 69.8949 6.31447C70.2544 6.58896 70.5097 6.95128 70.6607 7.40143ZM76.7182 7.40143L75.8453 7.64847C75.7904 7.50299 75.7095 7.36163 75.6024 7.22439C75.4981 7.0844 75.3554 6.96912 75.1742 6.87854C74.993 6.78796 74.7611 6.74267 74.4784 6.74267C74.0914 6.74267 73.7688 6.83188 73.5108 7.01029C73.2556 7.18596 73.1279 7.40966 73.1279 7.6814C73.1279 7.92295 73.2158 8.11372 73.3914 8.2537C73.5671 8.39369 73.8416 8.51035 74.2149 8.60367L75.1536 8.83424C75.7191 8.97148 76.1404 9.18146 76.4176 9.46418C76.6948 9.74415 76.8335 10.1051 76.8335 10.547C76.8335 10.9093 76.7292 11.2332 76.5206 11.5187C76.3147 11.8042 76.0265 12.0292 75.6559 12.1939C75.2854 12.3586 74.8544 12.441 74.3631 12.441C73.7181 12.441 73.1842 12.301 72.7615 12.021C72.3388 11.741 72.0712 11.332 71.9586 10.7941L72.8809 10.5635C72.9687 10.9038 73.1348 11.1591 73.3791 11.3293C73.6261 11.4995 73.9486 11.5846 74.3466 11.5846C74.7995 11.5846 75.1591 11.4885 75.4254 11.2964C75.6944 11.1015 75.8289 10.8682 75.8289 10.5964C75.8289 10.3768 75.752 10.1929 75.5983 10.0447C75.4446 9.89375 75.2085 9.78121 74.8901 9.7071L73.8361 9.46006C73.2569 9.32282 72.8315 9.11009 72.5597 8.82189C72.2908 8.53093 72.1563 8.16724 72.1563 7.73081C72.1563 7.37398 72.2564 7.05833 72.4568 6.78384C72.6599 6.50936 72.9358 6.29389 73.2844 6.13743C73.6357 5.98098 74.0337 5.90275 74.4784 5.90275C75.1042 5.90275 75.5955 6.03999 75.9524 6.31447C76.3119 6.58896 76.5672 6.95128 76.7182 7.40143Z" fill="#8F8F8F"/>
<path d="M104.274 5.94684H97.2495C96.3873 5.94684 95.6885 6.63896 95.6885 7.49273V14.4493C95.6885 15.303 96.3873 15.9951 97.2495 15.9951H104.274C105.136 15.9951 105.835 15.303 105.835 14.4493V7.49273C105.835 6.63896 105.136 5.94684 104.274 5.94684Z" stroke="#8F8F8F" stroke-width="0.772947" stroke-linecap="round" stroke-linejoin="round"/>
<path d="M92.5666 10.5846H91.7861C91.3721 10.5846 90.975 10.4217 90.6823 10.1318C90.3896 9.84187 90.2251 9.44867 90.2251 9.03867V2.08215C90.2251 1.67215 90.3896 1.27895 90.6823 0.989037C90.975 0.699125 91.3721 0.536255 91.7861 0.536255H98.8105C99.2245 0.536255 99.6215 0.699125 99.9142 0.989037C100.207 1.27895 100.371 1.67215 100.371 2.08215V2.8551" stroke="#8F8F8F" stroke-width="0.772947" stroke-linecap="round" stroke-linejoin="round"/>
</svg>
