<svg width="30" height="30" viewBox="0 0 30 30" fill="none" xmlns="http://www.w3.org/2000/svg">
<path d="M23.9983 13C23.9862 10.825 23.8897 9.64706 23.1213 8.87868C22.2426 8 20.8284 8 18 8H15C12.1716 8 10.7574 8 9.87868 8.87868C9 9.75736 9 11.1716 9 14V19C9 21.8284 9 23.2426 9.87868 24.1213C10.7574 25 12.1716 25 15 25H18C20.8284 25 22.2426 25 23.1213 24.1213C24 23.2426 24 21.8284 24 19V18" stroke="#1C274C" stroke-width="1.5" stroke-linecap="round"/>
<path d="M6 13V19C6 20.6569 7.34315 22 9 22M21 8C21 6.34315 19.6569 5 18 5H14C10.2288 5 8.34315 5 7.17157 6.17157C6.51839 6.82475 6.22937 7.69989 6.10149 9" stroke="#1C274C" stroke-width="1.5" stroke-linecap="round"/>
</svg>
