<svg width="184" height="27" viewBox="0 0 184 27" fill="none" xmlns="http://www.w3.org/2000/svg">
<path d="M0.0821991 9.30123H2.51486V7.98182H0.0821991V7.65196H0.741904V6.41502H4.98875V4.84822H6.102V1.67339L5.02998 1.63216V0.80753H8.16358V1.38477H9.3593V0.766296H17.3582L21.4814 4.88945V9.05384L21.3164 9.09507H21.234L17.3582 5.05438H7.99865V6.37379H5.27737V7.65196H4.70013V7.98182H7.0091V9.30123H4.70013V18.8257L0.0821991 23.4849V9.30123ZM21.5226 17.8774L22.1411 17.8362V18.8669H21.5638L21.5226 26H4.32905V25.1341H1.11299L1.60777 24.5981L4.49397 21.7532H16.9459V18.8669H17.6468V17.8774H17.0284V11.8164H17.1933L21.5226 15.9395V17.8774ZM17.0284 9.67231V7.23965L21.4814 11.6927V14.1665L20.9041 13.5893L17.0284 9.67231ZM4.70013 4.80699H0.123431V1.67339H4.70013V4.80699Z" fill="black"/>
<path d="M25.1597 18.8669V17.8362H24.7886V1.46723H27.716V0.80753H46.4351L42.4769 4.80699H43.8788L43.6314 5.01315H34.0245V6.37379H29.7364V5.05438H29.0767V11.0742H29.1179L29.2004 11.1154H39.3846V15.4035H29.0767V17.8362H29.489V18.8669H29.0767L29.0354 19.5679L25.0772 23.5261H24.7886V18.8669H25.1597ZM46.6413 24.7631L46.5176 24.8867H45.1157L45.9404 25.8763V25.9588L45.8579 26.0412H24.7886L26.1905 24.6394L29.0354 21.7532H41.8172L43.3428 23.2787H45.1982L46.6413 24.7631Z" fill="black"/>
<path d="M48.4961 0.766296H70.4725L68.0398 3.19896H67.3389L66.6792 3.85866H66.3081L65.1536 5.01315H66.7204L66.473 5.17807L52.3306 5.26054V7.89935L51.8771 7.98182V9.26L52.2481 9.38369V11.3628H62.6385V13.1358H64.9062V14.7026H62.6385V15.6097H52.3306V19.4854L48.4961 23.32H48.0013V6.41502L51.3411 6.37379V4.84822H48.0425V1.50846H48.4961V0.766296ZM52.578 26H48.4961L52.578 21.9181V26Z" fill="black"/>
<path d="M75.6239 22.4129H77.5617V24.0209H76.2836V24.9692H75.5826V26H71.377V24.9692H71.7893V24.0209H72.6964V22.4129H71.3358V8.43536H73.15V6.86857H72.2429V5.46669H71.5419V5.17807H72.2429V5.01315H71.3358V0.766296H75.5414V5.01315H76.366V5.17807H75.9949V5.46669H76.366V6.7861H77.2319V8.43536H75.6239V22.4129Z" fill="black"/>
<path d="M83.9356 18.3309V21.9181H85.1313V23.6498H83.9356V25.9588H79.7712V23.6498H80.8432V21.9181H79.7712V14.1253L83.9356 18.3309ZM101.624 6.41502H102.284V8.10551H100.964V15.6097H91.5634L87.4402 11.4865L87.4815 11.404L87.5639 11.3216H96.6349V8.10551H97.9955V6.41502H97.377V4.47714H84.5128V6.41502H85.1725V8.10551H84.0592L84.018 10.0022L95.9752 21.9181H96.4287L98.1604 23.6498H97.8306L100.14 26H93.8724L92.6354 24.8043L92.5942 24.3507L91.9345 23.6498H92.7179L90.9037 21.9181H89.9141L79.7712 11.8164V8.10551H81.0493V6.41502H80.4721V4.47714H79.7712V0.972454H100.923V4.47714H101.624V6.41502Z" fill="black"/>
<path d="M103.902 20.1864H106.582V18.6608H109.056V21.011C108.891 21.011 108.658 21.011 108.355 21.011V23.4849L108.314 23.5261C108.259 23.5536 108.218 23.5673 108.19 23.5673C107.256 23.5673 105.826 23.5673 103.902 23.5673V20.1864ZM107.242 26V24.3507H108.974V26C108.974 26 108.836 26 108.561 26C108.287 26 108.149 26 108.149 26H107.242ZM126.002 8.22921H127.198V11.6514H125.961V25.9588L121.673 21.9181V11.6514H122.951V8.22921H121.673V8.14674H122.085V6.74487H121.632V5.38423H109.675V6.66241H109.015V13.4244H119.24V17.7949H109.015V18.166L106.294 18.2072V19.774C106.211 19.774 106.115 19.774 106.005 19.774C105.923 19.774 105.826 19.774 105.716 19.774C105.606 19.774 105.524 19.774 105.469 19.774C105.469 19.774 105.167 19.774 104.562 19.774V6.66241H105.18V5.38423H104.562V1.09615H126.002V1.63216H126.827V3.48758L126.415 3.57004V5.38423H126.002V6.74487H126.621V8.14674L125.961 8.10551L126.002 8.22921Z" fill="black"/>
<path d="M134.031 22.4129H135.969V24.0209H134.691V24.9692H133.99V26H129.784V24.9692H130.196V24.0209H131.103V22.4129H129.743V8.43536H131.557V6.86857H130.65V5.46669H129.949V5.17807H130.65V5.01315H129.743V0.766296H133.948V5.01315H134.773V5.17807H134.402V5.46669H134.773V6.7861H135.639V8.43536H134.031V22.4129Z" fill="black"/>
<path d="M158.753 21.8768H159.33V23.4849H158.753V26H137.477L138.055 25.2578L138.879 24.392H139.374L140.24 23.5261H140.982L142.425 21.9181V21.7119H154.506L154.547 21.6295L154.588 21.5058V15.1973H137.725V7.94059H138.962V6.29132H138.178V4.88945H137.683V0.972454H158.712L155.207 4.43591V4.64206L142.755 4.88945H142.425V6.29132H143.044V7.94059H141.765V11.033H158.753V21.8768ZM151.867 16.7229H151.166V16.022H151.867V16.7229ZM153.929 16.7229H153.64V16.022H153.929V16.7229ZM153.269 16.7229H152.98V16.022H153.269V16.7229ZM152.568 16.7229H152.279V16.022H152.568V16.7229Z" fill="black"/>
<path d="M162.127 18.8669V17.8362H161.756V1.46723H164.684V0.80753H183.403L179.445 4.80699H180.846L180.599 5.01315H170.992V6.37379H166.704V5.05438H166.044V11.0742H166.086L166.168 11.1154H176.352V15.4035H166.044V17.8362H166.457V18.8669H166.044L166.003 19.5679L162.045 23.5261H161.756V18.8669H162.127ZM183.609 24.7631L183.485 24.8867H182.083L182.908 25.8763V25.9588L182.826 26.0412H161.756L163.158 24.6394L166.003 21.7532H178.785L180.31 23.2787H182.166L183.609 24.7631Z" fill="black"/>
</svg>
