<svg width="173" height="45" viewBox="0 0 173 45" fill="none" xmlns="http://www.w3.org/2000/svg">
<path d="M0 3H12.1633L23.4086 13.3273L12.1633 13.0978V23.1956L0 13.3273V3Z" fill="black"/>
<path d="M0 23.1957H12.1633L23.4086 33.5231L12.1633 33.2936V43.3914L0 33.5231V23.1957Z" fill="black"/>
<path d="M41.56 12.279C43.737 12.279 45.6468 12.7045 47.2894 13.5555C48.9519 14.4065 50.2284 15.6236 51.119 17.2069C52.0294 18.7704 52.4845 20.5911 52.4845 22.6692C52.4845 24.7472 52.0294 26.568 51.119 28.1315C50.2284 29.6751 48.9519 30.8725 47.2894 31.7235C45.6468 32.5745 43.737 33 41.56 33H34.3165V12.279H41.56ZM41.4116 29.4673C43.5886 29.4673 45.2708 28.8736 46.4582 27.6862C47.6457 26.4987 48.2394 24.8264 48.2394 22.6692C48.2394 20.512 47.6457 18.8298 46.4582 17.6225C45.2708 16.3955 43.5886 15.782 41.4116 15.782H38.4726V29.4673H41.4116ZM70.2903 24.4207C70.2903 25.0144 70.2507 25.5487 70.1715 26.0237H58.1486C58.2475 27.2112 58.6632 28.1413 59.3954 28.8142C60.1277 29.4871 61.0282 29.8236 62.0969 29.8236C63.6406 29.8236 64.7389 29.1606 65.392 27.8346H69.8747C69.3997 29.4179 68.4893 30.7241 67.1435 31.7532C65.7978 32.7625 64.1452 33.2672 62.1859 33.2672C60.6027 33.2672 59.1777 32.9208 57.9111 32.2282C56.6643 31.5157 55.6846 30.5162 54.9722 29.2298C54.2795 27.9434 53.9331 26.4591 53.9331 24.7769C53.9331 23.0749 54.2795 21.5807 54.9722 20.2943C55.6648 19.0079 56.6346 18.0183 57.8814 17.3256C59.1282 16.633 60.5631 16.2866 62.1859 16.2866C63.7494 16.2866 65.1447 16.6231 66.3717 17.296C67.6185 17.9688 68.5784 18.9287 69.2513 20.1755C69.9439 21.4026 70.2903 22.8176 70.2903 24.4207ZM65.9858 23.2332C65.966 22.1645 65.5801 21.3135 64.828 20.6802C64.076 20.0271 63.1557 19.7005 62.0672 19.7005C61.0381 19.7005 60.1673 20.0172 59.4548 20.6505C58.7621 21.264 58.3366 22.1249 58.1783 23.2332H65.9858ZM80.2704 19.9677H77.3909V33H73.1754V19.9677H71.3052V16.5538H73.1754V15.7226C73.1754 13.7039 73.7493 12.2196 74.8972 11.2696C76.0451 10.3197 77.7768 9.87439 80.0923 9.93376V13.4367C79.083 13.417 78.3804 13.5852 77.9846 13.9414C77.5888 14.2976 77.3909 14.9408 77.3909 15.871V16.5538H80.2704V19.9677ZM84.4778 14.5945C83.7455 14.5945 83.132 14.3669 82.6372 13.9117C82.1622 13.4367 81.9247 12.8529 81.9247 12.1602C81.9247 11.4676 82.1622 10.8936 82.6372 10.4384C83.132 9.96345 83.7455 9.72596 84.4778 9.72596C85.21 9.72596 85.8136 9.96345 86.2886 10.4384C86.7834 10.8936 87.0308 11.4676 87.0308 12.1602C87.0308 12.8529 86.7834 13.4367 86.2886 13.9117C85.8136 14.3669 85.21 14.5945 84.4778 14.5945ZM86.5261 16.5538V33H82.37V16.5538H86.5261ZM102.833 12.279V15.6335H94.1947V20.9474H100.815V24.2425H94.1947V33H90.0386V12.279H102.833ZM120.713 16.5538V33H116.527V30.922C115.993 31.6344 115.29 32.1985 114.419 32.6141C113.568 33.0099 112.638 33.2078 111.629 33.2078C110.342 33.2078 109.204 32.9406 108.215 32.4063C107.225 31.8521 106.443 31.0506 105.87 30.0017C105.315 28.933 105.038 27.6664 105.038 26.2018V16.5538H109.194V25.6081C109.194 26.9143 109.521 27.9236 110.174 28.6361C110.827 29.3288 111.718 29.6751 112.846 29.6751C113.994 29.6751 114.894 29.3288 115.547 28.6361C116.2 27.9236 116.527 26.9143 116.527 25.6081V16.5538H120.713ZM133.333 16.3163C135.293 16.3163 136.876 16.9397 138.083 18.1865C139.29 19.4136 139.894 21.1354 139.894 23.352V33H135.738V23.916C135.738 22.6098 135.411 21.6104 134.758 20.9177C134.105 20.2052 133.215 19.849 132.086 19.849C130.939 19.849 130.028 20.2052 129.355 20.9177C128.702 21.6104 128.376 22.6098 128.376 23.916V33H124.22V16.5538H128.376V18.6022C128.93 17.8897 129.632 17.3355 130.483 16.9397C131.354 16.5241 132.304 16.3163 133.333 16.3163ZM142.184 24.7175C142.184 23.0551 142.51 21.5807 143.163 20.2943C143.836 19.0079 144.747 18.0183 145.894 17.3256C147.042 16.633 148.319 16.2866 149.724 16.2866C150.793 16.2866 151.812 16.5241 152.782 16.9991C153.751 17.4543 154.523 18.0678 155.097 18.8396V11.0322H159.313V33H155.097V30.5657C154.583 31.3772 153.86 32.0302 152.93 32.525C152 33.0198 150.921 33.2672 149.694 33.2672C148.309 33.2672 147.042 32.9109 145.894 32.1985C144.747 31.486 143.836 30.4866 143.163 29.2002C142.51 27.894 142.184 26.3998 142.184 24.7175ZM155.127 24.7769C155.127 23.7676 154.929 22.9067 154.533 22.1942C154.137 21.4619 153.603 20.9078 152.93 20.5318C152.257 20.1359 151.535 19.938 150.763 19.938C149.991 19.938 149.279 20.1261 148.626 20.5021C147.973 20.8781 147.438 21.4322 147.023 22.1645C146.627 22.877 146.429 23.728 146.429 24.7175C146.429 25.7071 146.627 26.5779 147.023 27.3299C147.438 28.0622 147.973 28.6262 148.626 29.022C149.299 29.4179 150.011 29.6158 150.763 29.6158C151.535 29.6158 152.257 29.4278 152.93 29.0517C153.603 28.6559 154.137 28.1018 154.533 27.3893C154.929 26.657 155.127 25.7862 155.127 24.7769ZM166.934 19.1068C167.469 18.236 168.161 17.5532 169.012 17.0585C169.883 16.5637 170.873 16.3163 171.981 16.3163V20.6802H170.882C169.576 20.6802 168.587 20.987 167.914 21.6005C167.261 22.214 166.934 23.2827 166.934 24.8066V33H162.778V16.5538H166.934V19.1068Z" fill="black"/>
</svg>
