<svg width="30" height="30" viewBox="0 0 30 30" fill="none" xmlns="http://www.w3.org/2000/svg">
<path d="M14.25 10.8475C13.3141 11.1034 12.75 11.8215 12.75 12.5C12.75 13.1785 13.3141 13.8966 14.25 14.1525V10.8475Z" fill="black"/>
<path d="M15.75 15.8475V19.1525C16.6859 18.8966 17.25 18.1785 17.25 17.5C17.25 16.8215 16.6859 16.1034 15.75 15.8475Z" fill="black"/>
<path fill-rule="evenodd" clip-rule="evenodd" d="M25 15C25 20.5228 20.5228 25 15 25C9.47715 25 5 20.5228 5 15C5 9.47715 9.47715 5 15 5C20.5228 5 25 9.47715 25 15ZM15 8.25C15.4142 8.25 15.75 8.58579 15.75 9V9.31673C17.3804 9.60867 18.75 10.8336 18.75 12.5C18.75 12.9142 18.4142 13.25 18 13.25C17.5858 13.25 17.25 12.9142 17.25 12.5C17.25 11.8215 16.6859 11.1034 15.75 10.8475V14.3167C17.3804 14.6087 18.75 15.8336 18.75 17.5C18.75 19.1664 17.3804 20.3913 15.75 20.6833V21C15.75 21.4142 15.4142 21.75 15 21.75C14.5858 21.75 14.25 21.4142 14.25 21V20.6833C12.6196 20.3913 11.25 19.1664 11.25 17.5C11.25 17.0858 11.5858 16.75 12 16.75C12.4142 16.75 12.75 17.0858 12.75 17.5C12.75 18.1785 13.3141 18.8966 14.25 19.1525V15.6833C12.6196 15.3913 11.25 14.1664 11.25 12.5C11.25 10.8336 12.6196 9.60867 14.25 9.31673V9C14.25 8.58579 14.5858 8.25 15 8.25Z" fill="black"/>
</svg>
