<svg width="25" height="24" viewBox="0 0 25 24" fill="none" xmlns="http://www.w3.org/2000/svg">
<path d="M8.22247 19.0399H8.01954C7.28348 19.0399 6.91546 19.0399 6.68679 18.8113C6.45813 18.5826 6.45813 18.2146 6.45813 17.4785V16.6104C6.45813 16.2056 6.45813 16.0032 6.5621 15.8225C6.66608 15.6417 6.82293 15.5505 7.13664 15.368C9.20197 14.1668 12.1351 13.4906 14.0927 14.6582C14.2242 14.7367 14.3425 14.8314 14.4436 14.9449C14.8793 15.4343 14.8476 16.173 14.3454 16.6112C14.2394 16.7038 14.1263 16.774 14.0125 16.7984C14.106 16.7875 14.1957 16.7751 14.2812 16.7615C14.9928 16.648 15.5901 16.2678 16.1369 15.8547L17.5477 14.7889C18.0451 14.4132 18.7834 14.4131 19.2808 14.7887C19.7287 15.1269 19.8656 15.6837 19.5825 16.1376C19.2523 16.6668 18.7871 17.3439 18.3404 17.7576C17.8931 18.172 17.2271 18.5419 16.6834 18.8043C16.0811 19.095 15.4158 19.2625 14.739 19.372C13.3665 19.5942 11.936 19.5603 10.5774 19.2804C9.80933 19.1222 9.01166 19.0399 8.22247 19.0399Z" fill="black"/>
<path d="M8.47686 4.36065C8.19051 4.64699 8.08346 5.04261 8.04343 5.65975C8.9946 5.64706 9.76327 4.87839 9.77596 3.92722C9.15882 3.96725 8.7632 4.0743 8.47686 4.36065Z" fill="black"/>
<path d="M16.9307 4.36065C16.6443 4.0743 16.2487 3.96724 15.6316 3.92722C15.6442 4.87839 16.4129 5.64707 17.3641 5.65975C17.3241 5.0426 17.217 4.64699 16.9307 4.36065Z" fill="black"/>
<path d="M16.9307 9.69163C16.6443 9.97798 16.2487 10.085 15.6316 10.1251C15.6442 9.17389 16.4129 8.40521 17.3641 8.39253C17.3241 9.00968 17.217 9.40529 16.9307 9.69163Z" fill="black"/>
<path d="M8.47686 9.69163C8.7632 9.97798 9.15882 10.085 9.77596 10.1251C9.76327 9.17389 8.9946 8.40522 8.04343 8.39253C8.08346 9.00967 8.19051 9.40529 8.47686 9.69163Z" fill="black"/>
<path fill-rule="evenodd" clip-rule="evenodd" d="M8.01953 6.83096C9.63642 6.83096 10.9472 5.52021 10.9472 3.90332H14.4603C14.4603 5.52021 15.7711 6.83096 17.388 6.83096V7.22132C15.7711 7.22132 14.4603 8.53207 14.4603 10.149H10.9472C10.9472 8.53207 9.63642 7.22132 8.01953 7.22132V6.83096ZM12.7038 7.80684C13.1349 7.80684 13.4845 7.45731 13.4845 7.02614C13.4845 6.59497 13.1349 6.24543 12.7038 6.24543C12.2726 6.24543 11.9231 6.59497 11.9231 7.02614C11.9231 7.45731 12.2726 7.80684 12.7038 7.80684Z" fill="black"/>
</svg>
