<svg width="25" height="24" viewBox="0 0 25 24" fill="none" xmlns="http://www.w3.org/2000/svg">
<path fill-rule="evenodd" clip-rule="evenodd" d="M14.5184 5.55919C14.4371 5.55908 14.3526 5.55906 14.2647 5.55906L11.1418 5.55906C11.054 5.55906 10.9694 5.55908 10.8881 5.55919C10.6552 6.70621 9.75171 7.6097 8.60468 7.84258C8.60457 7.92393 8.60455 8.00846 8.60455 8.09635C8.60455 8.18425 8.60457 8.26877 8.60468 8.35012C9.75171 8.583 10.6552 9.48649 10.8881 10.6335C10.9694 10.6336 11.054 10.6336 11.1418 10.6336H14.2647C14.3526 10.6336 14.4371 10.6336 14.5184 10.6335C14.7513 9.48649 15.6548 8.58301 16.8018 8.35012C16.8019 8.26877 16.802 8.18425 16.802 8.09635C16.802 8.00845 16.8019 7.92393 16.8018 7.84258C15.6548 7.6097 14.7513 6.70621 14.5184 5.55919ZM14.9903 4.39055C14.776 4.38799 14.5476 4.38799 14.3053 4.388L11.1012 4.388C10.8589 4.38799 10.6305 4.38799 10.4162 4.39055C10.3981 4.38887 10.3797 4.388 10.3611 4.388C10.3366 4.388 10.3125 4.38951 10.2888 4.39243C9.93527 4.39871 9.62226 4.41386 9.35053 4.45039C8.86041 4.51628 8.41791 4.66124 8.06232 5.01683C7.70673 5.37241 7.56178 5.81492 7.49588 6.30504C7.45935 6.57676 7.4442 6.88977 7.43793 7.24326C7.435 7.26698 7.4335 7.29114 7.4335 7.31565C7.4335 7.3342 7.43436 7.35255 7.43605 7.37067C7.43348 7.58501 7.43349 7.81343 7.4335 8.05575V8.13695C7.43349 8.37927 7.43348 8.60769 7.43605 8.82203C7.43436 8.84015 7.4335 8.8585 7.4335 8.87706C7.4335 8.90157 7.435 8.92572 7.43793 8.94944C7.4442 9.30293 7.45935 9.61594 7.49588 9.88766C7.56178 10.3778 7.70673 10.8203 8.06232 11.1759C8.41791 11.5315 8.86041 11.6764 9.35053 11.7423C9.62226 11.7788 9.93527 11.794 10.2888 11.8003C10.3125 11.8032 10.3366 11.8047 10.3611 11.8047C10.3797 11.8047 10.398 11.8038 10.4162 11.8021C10.6305 11.8047 10.8589 11.8047 11.1013 11.8047H14.3053C14.5476 11.8047 14.776 11.8047 14.9903 11.8021C15.0085 11.8038 15.0268 11.8047 15.0454 11.8047C15.0699 11.8047 15.094 11.8032 15.1178 11.8003C15.4712 11.794 15.7843 11.7788 16.056 11.7423C16.5461 11.6764 16.9886 11.5315 17.3442 11.1759C17.6998 10.8203 17.8447 10.3778 17.9106 9.88766C17.9472 9.61594 17.9623 9.30293 17.9686 8.94944C17.9715 8.92572 17.973 8.90156 17.973 8.87706C17.973 8.8585 17.9722 8.84015 17.9705 8.82203C17.973 8.60769 17.973 8.37927 17.973 8.13694V8.05576C17.973 7.81343 17.973 7.58501 17.9705 7.37067C17.9722 7.35255 17.973 7.3342 17.973 7.31565C17.973 7.29114 17.9715 7.26698 17.9686 7.24326C17.9623 6.88977 17.9472 6.57676 17.9106 6.30504C17.8447 5.81492 17.6998 5.37241 17.3442 5.01683C16.9886 4.66124 16.5461 4.51628 16.056 4.45039C15.7843 4.41386 15.4712 4.39871 15.1178 4.39243C15.094 4.38951 15.0699 4.388 15.0454 4.388C15.0268 4.388 15.0085 4.38887 14.9903 4.39055ZM15.7434 5.59338C15.9212 6.06489 16.2961 6.43977 16.7676 6.61763C16.7626 6.56302 16.7567 6.51093 16.75 6.46108C16.7016 6.10081 16.6179 5.94663 16.5161 5.84489C16.4144 5.74315 16.2602 5.65944 15.8999 5.611C15.8501 5.6043 15.798 5.59846 15.7434 5.59338ZM16.7676 9.57508C16.2961 9.75293 15.9212 10.1278 15.7434 10.5993C15.798 10.5942 15.8501 10.5884 15.8999 10.5817C16.2602 10.5333 16.4144 10.4496 16.5161 10.3478C16.6179 10.2461 16.7016 10.0919 16.75 9.73162C16.7567 9.68177 16.7626 9.62968 16.7676 9.57508ZM9.66312 10.5993C9.48526 10.1278 9.11039 9.75293 8.63887 9.57508C8.64396 9.62968 8.6498 9.68178 8.6565 9.73162C8.70494 10.0919 8.78864 10.2461 8.89038 10.3478C8.99212 10.4496 9.14631 10.5333 9.50657 10.5817C9.55642 10.5884 9.60851 10.5942 9.66312 10.5993ZM8.63888 6.61763C9.11039 6.43977 9.48526 6.06489 9.66312 5.59338C9.60851 5.59847 9.55642 5.6043 9.50657 5.611C9.14631 5.65944 8.99212 5.74315 8.89038 5.84489C8.78864 5.94663 8.70494 6.10081 8.6565 6.46108C8.6498 6.51093 8.64396 6.56302 8.63888 6.61763ZM12.7033 7.90117C12.5955 7.90117 12.5081 7.98856 12.5081 8.09635C12.5081 8.20414 12.5955 8.29153 12.7033 8.29153C12.811 8.29153 12.8984 8.20414 12.8984 8.09635C12.8984 7.98856 12.811 7.90117 12.7033 7.90117ZM11.337 8.09635C11.337 7.3418 11.9487 6.73012 12.7033 6.73012C13.4578 6.73012 14.0695 7.3418 14.0695 8.09635C14.0695 8.8509 13.4578 9.46258 12.7033 9.46258C11.9487 9.46258 11.337 8.8509 11.337 8.09635ZM10.1144 13.9112C11.571 13.629 13.1304 13.6923 14.3921 14.4449C14.5694 14.5506 14.7355 14.6823 14.8804 14.8451C15.1739 15.1747 15.3254 15.5843 15.3326 15.995C15.4819 15.8987 15.6315 15.7918 15.7834 15.677L17.1943 14.6112C17.9005 14.0777 18.9268 14.0776 19.6332 14.6109C20.2858 15.1037 20.546 15.9881 20.0788 16.737C19.7467 17.2692 19.2466 18.0054 18.7378 18.4767C18.2233 18.9532 17.4912 19.3538 16.9374 19.6211C16.2648 19.9457 15.5384 20.1252 14.8321 20.2395C13.3884 20.4732 11.8862 20.4375 10.4587 20.1434C9.72923 19.9931 8.97113 19.915 8.22196 19.915H6.45762C6.13424 19.915 5.87209 19.6528 5.87209 19.3294C5.87209 19.0061 6.13424 18.7439 6.45762 18.7439H8.22196C9.05115 18.7439 9.88841 18.8302 10.695 18.9964C11.9848 19.2621 13.3435 19.2942 14.6449 19.0835C15.2921 18.9788 15.8964 18.8232 16.4284 18.5665C16.9619 18.3089 17.5618 17.9697 17.942 17.6176C18.3265 17.2614 18.7569 16.6434 19.0852 16.1171C19.1843 15.9583 19.1706 15.7291 18.9275 15.5455C18.6388 15.3276 18.1887 15.3276 17.9002 15.5456L16.4893 16.6114C15.9261 17.0369 15.2328 17.492 14.373 17.6292C14.2862 17.643 14.1958 17.6557 14.102 17.6669C14.0573 17.6749 14.0108 17.6803 13.9627 17.6821C13.5237 17.7257 13.0153 17.7358 12.4544 17.6829C12.1325 17.6525 11.8961 17.3668 11.9265 17.0449C11.9569 16.7229 12.2426 16.4866 12.5645 16.517C13.0543 16.5633 13.4938 16.553 13.8667 16.5148C13.8742 16.514 13.8818 16.5132 13.8893 16.5124C13.9049 16.5033 13.9286 16.4869 13.9599 16.4596C14.2093 16.2419 14.2315 15.8774 14.0058 15.6238C13.9485 15.5595 13.8781 15.5018 13.7922 15.4506C12.8701 14.9006 11.6386 14.8087 10.3371 15.0608C9.04306 15.3116 7.75742 15.8891 6.79633 16.5707C6.53255 16.7577 6.16707 16.6955 5.98 16.4318C5.79293 16.168 5.85512 15.8025 6.1189 15.6154C7.21061 14.8412 8.6503 14.1948 10.1144 13.9112Z" fill="black"/>
</svg>
