<svg width="30" height="30" viewBox="0 0 30 30" fill="none" xmlns="http://www.w3.org/2000/svg">
<path d="M17.217 6.49965C15.796 5.83345 14.2035 5.83345 12.7825 6.49965L8.48919 8.51246C9.27114 8.59683 9.98602 9.0894 10.3179 9.86377C10.8074 11.0059 10.2783 12.3287 9.13613 12.8182L8.06046 13.2792C7.52594 13.5082 7.22261 13.6406 7.01782 13.7456C7.0167 13.7619 7.01564 13.7788 7.01465 13.7962L12.7826 16.5003C14.2036 17.1665 15.7961 17.1665 17.2171 16.5003L23.9082 13.3634C25.3637 12.6811 25.3637 10.319 23.9082 9.63664L17.217 6.49965Z" fill="black"/>
<path d="M8.54544 11.4396C8.92616 11.2764 9.10253 10.8355 8.93936 10.4548C8.7762 10.074 8.33529 9.89767 7.95456 10.0608L6.84318 10.5371C6.28571 10.776 5.81328 10.9785 5.44254 11.1871C5.04805 11.409 4.70851 11.6694 4.45419 12.0551C4.19986 12.4408 4.09421 12.8555 4.04563 13.3055C3.99996 13.7284 3.99998 14.2424 4 14.8489V17.7502C4 18.1644 4.33579 18.5002 4.75 18.5002C5.16422 18.5002 5.5 18.1644 5.5 17.7502V14.8878C5.5 14.232 5.50101 13.7995 5.53696 13.4665C5.57095 13.1517 5.63046 12.9961 5.70645 12.8809C5.78244 12.7656 5.90202 12.6496 6.178 12.4944C6.46985 12.3302 6.867 12.1589 7.46976 11.9006L8.54544 11.4396Z" fill="black"/>
<path opacity="0.5" d="M8 14.2581L12.7826 16.5003C14.2036 17.1665 15.7961 17.1665 17.2171 16.5003L22 14.258V19.6252C22 20.6333 21.4965 21.577 20.6147 22.0654C19.1463 22.8786 16.796 23.9998 15 23.9998C13.204 23.9998 10.8537 22.8786 9.38533 22.0654C8.5035 21.577 8 20.6333 8 19.6252V14.2581Z" fill="black"/>
</svg>
