<svg width="135" height="135" viewBox="0 0 135 135" fill="none" xmlns="http://www.w3.org/2000/svg">
<g opacity="0.2">
<circle cx="67.4428" cy="67.4428" r="47.8811" transform="rotate(-39.8691 67.4428 67.4428)" fill="#B5B5B5"/>
<path d="M41.6563 37.9392L42.4073 39.6693L76.0597 79.9613L76.8092 80.0277L86.2783 53.3516L41.6563 37.9392Z" fill="#343434"/>
<path d="M41.6566 37.939L48.8727 84.5934L76.8095 80.0276L60.4755 60.4709L41.6566 37.939Z" fill="#8C8C8C"/>
<path d="M79.7621 83.5628L79.7663 84.0363L91.7538 98.3889L92.546 98.8691L89.2475 56.8829L79.7621 83.5628Z" fill="#3C3C3B"/>
<path d="M92.5469 98.8683L79.7629 83.562L51.8309 88.1336L92.5469 98.8683Z" fill="#8C8C8C"/>
<path d="M76.8165 80.0327L86.2857 53.3566L60.4825 60.4761L76.8165 80.0327Z" fill="#141414"/>
<path d="M48.8789 84.5993L76.8157 80.0335L60.4818 60.4768L48.8789 84.5993Z" fill="#393939"/>
</g>
</svg>
