<svg width="63" height="64" viewBox="0 0 63 64" fill="none" xmlns="http://www.w3.org/2000/svg">
<path d="M46.442 12.362C46.2336 12.362 46.0252 12.3099 45.8429 12.2057C40.8416 9.62694 36.5176 8.53292 31.3341 8.53292C26.1765 8.53292 21.2795 9.75718 16.8252 12.2057C16.2001 12.5443 15.4186 12.3099 15.054 11.6847C14.7153 11.0596 14.9498 10.2521 15.5749 9.91347C20.4199 7.2826 25.7337 5.9281 31.3341 5.9281C36.8823 5.9281 41.7273 7.15236 47.0411 9.88742C47.6923 10.226 47.9267 11.0075 47.5881 11.6326C47.3537 12.1015 46.9109 12.362 46.442 12.362V12.362ZM9.16708 26.0373C8.9066 26.0373 8.64612 25.9591 8.41168 25.8028C7.81258 25.3861 7.68234 24.5786 8.09911 23.9795C10.6779 20.3327 13.9599 17.4674 17.8672 15.4617C26.0463 11.2419 36.5176 11.2159 44.7228 15.4357C48.63 17.4414 51.9121 20.2806 54.4909 23.9013C54.9076 24.4744 54.7774 25.3079 54.1783 25.7247C53.5792 26.1415 52.7717 26.0112 52.3549 25.4121C50.0106 22.1301 47.0411 19.5513 43.5246 17.754C36.0488 13.9249 26.4891 13.9249 19.0393 17.78C15.4968 19.6034 12.5273 22.2082 10.183 25.4903C9.97457 25.8549 9.58385 26.0373 9.16708 26.0373V26.0373ZM25.4472 57.4774C25.1086 57.4774 24.7699 57.3472 24.5355 57.0867C22.2693 54.8205 21.045 53.3618 19.2998 50.21C17.5025 47.006 16.5648 43.0988 16.5648 38.9051C16.5648 31.1688 23.181 24.8651 31.308 24.8651C39.435 24.8651 46.0513 31.1688 46.0513 38.9051C46.0513 39.6344 45.4782 40.2075 44.7489 40.2075C44.0195 40.2075 43.4465 39.6344 43.4465 38.9051C43.4465 32.6014 38.0024 27.4699 31.308 27.4699C24.6136 27.4699 19.1696 32.6014 19.1696 38.9051C19.1696 42.656 20.0031 46.1204 21.5921 48.9336C23.2591 51.9291 24.4053 53.2055 26.411 55.2373C26.9059 55.7582 26.9059 56.5657 26.411 57.0867C26.1244 57.3472 25.7858 57.4774 25.4472 57.4774ZM44.1237 52.6585C41.024 52.6585 38.2889 51.877 36.0488 50.3402C32.1676 47.7093 29.8493 43.4374 29.8493 38.9051C29.8493 38.1757 30.4224 37.6027 31.1517 37.6027C31.8811 37.6027 32.4541 38.1757 32.4541 38.9051C32.4541 42.5779 34.3296 46.0423 37.5075 48.1782C39.3569 49.4285 41.5189 50.0276 44.1237 50.0276C44.7489 50.0276 45.7908 49.9495 46.8327 49.7671C47.536 49.6369 48.2133 50.1058 48.3435 50.8351C48.4737 51.5384 48.0049 52.2157 47.2755 52.3459C45.7908 52.6324 44.4884 52.6585 44.1237 52.6585V52.6585ZM38.888 58.0244C38.7838 58.0244 38.6536 57.9984 38.5494 57.9723C34.4077 56.8262 31.6987 55.2894 28.8595 52.5022C25.2127 48.8815 23.207 44.0626 23.207 38.9051C23.207 34.6853 26.8017 31.2469 31.2299 31.2469C35.6581 31.2469 39.2527 34.6853 39.2527 38.9051C39.2527 41.6922 41.6752 43.9584 44.6707 43.9584C47.6663 43.9584 50.0887 41.6922 50.0887 38.9051C50.0887 29.0849 41.6231 21.1142 31.2038 21.1142C23.8061 21.1142 17.0336 25.2298 13.986 31.6116C12.9701 33.7215 12.4491 36.1961 12.4491 38.9051C12.4491 40.9368 12.6315 44.1407 14.1944 48.3085C14.4549 48.9857 14.1162 49.7411 13.439 49.9755C12.7617 50.236 12.0063 49.8713 11.7719 49.2201C10.4955 45.8078 9.87038 42.4216 9.87038 38.9051C9.87038 35.7793 10.4695 32.94 11.6417 30.4655C15.1061 23.198 22.7903 18.4833 31.2038 18.4833C43.0557 18.4833 52.6935 27.6262 52.6935 38.879C52.6935 43.0988 49.0989 46.5372 44.6707 46.5372C40.2425 46.5372 36.6479 43.0988 36.6479 38.879C36.6479 36.0919 34.2254 33.8257 31.2299 33.8257C28.2343 33.8257 25.8119 36.0919 25.8119 38.879C25.8119 43.3333 27.531 47.501 30.6829 50.6267C33.1574 53.0753 35.5278 54.4298 39.2006 55.4456C39.9039 55.628 40.2946 56.3573 40.1123 57.0346C39.982 57.6337 39.435 58.0244 38.888 58.0244V58.0244Z" fill="#183162"/>
</svg>
