<svg width="14" height="14" viewBox="0 0 14 14" fill="none" xmlns="http://www.w3.org/2000/svg">
<path d="M8.63334 4.9C8.63334 5.80206 7.90207 6.53333 7 6.53333C6.09794 6.53333 5.36667 5.80206 5.36667 4.9C5.36667 3.99793 6.09794 3.26666 7 3.26666C7.90207 3.26666 8.63334 3.99793 8.63334 4.9Z" fill="#2B64E3"/>
<path opacity="0.5" d="M10.5 4.9C10.5 5.54434 9.97766 6.06667 9.33332 6.06667C8.68899 6.06667 8.16666 5.54434 8.16666 4.9C8.16666 4.25567 8.68899 3.73334 9.33332 3.73334C9.97766 3.73334 10.5 4.25567 10.5 4.9Z" fill="#2B64E3"/>
<path opacity="0.5" d="M3.50001 4.9C3.50001 5.54434 4.02234 6.06667 4.66668 6.06667C5.31101 6.06667 5.83334 5.54434 5.83334 4.9C5.83334 4.25567 5.31101 3.73334 4.66668 3.73334C4.02234 3.73334 3.50001 4.25567 3.50001 4.9Z" fill="#2B64E3"/>
<path d="M9.80001 9.10001C9.80001 10.0021 8.54641 10.7333 7.00001 10.7333C5.45361 10.7333 4.20001 10.0021 4.20001 9.10001C4.20001 8.19794 5.45361 7.46667 7.00001 7.46667C8.54641 7.46667 9.80001 8.19794 9.80001 9.10001Z" fill="#2B64E3"/>
<path opacity="0.5" d="M11.6667 9.10002C11.6667 9.74435 10.8309 10.2667 9.79999 10.2667C8.76905 10.2667 7.93332 9.74435 7.93332 9.10002C7.93332 8.45568 8.76905 7.93335 9.79999 7.93335C10.8309 7.93335 11.6667 8.45568 11.6667 9.10002Z" fill="#2B64E3"/>
<path opacity="0.5" d="M2.33335 9.10002C2.33335 9.74435 3.16908 10.2667 4.20001 10.2667C5.23095 10.2667 6.06668 9.74435 6.06668 9.10002C6.06668 8.45568 5.23095 7.93335 4.20001 7.93335C3.16908 7.93335 2.33335 8.45568 2.33335 9.10002Z" fill="#2B64E3"/>
</svg>
