<svg width="24" height="24" viewBox="0 0 24 24" fill="none" xmlns="http://www.w3.org/2000/svg">
<path fill-rule="evenodd" clip-rule="evenodd" d="M15.0013 3.73995C16.0256 4.08467 16.6931 5.04847 16.6931 6.31206C16.6931 7.10646 16.2415 7.83764 15.7383 8.421C15.221 9.02068 14.5662 9.55882 13.9935 9.97631C13.969 9.9942 13.9446 10.012 13.9205 10.0296C13.3646 10.4358 12.906 10.7708 12.2041 10.7708C11.5021 10.7708 11.0436 10.4358 10.4877 10.0296C10.4635 10.012 10.4392 9.99419 10.4147 9.9763C9.84194 9.55881 9.18719 9.02067 8.66987 8.42099C8.16663 7.83764 7.71503 7.10646 7.71503 6.31207C7.71503 5.04847 8.38255 4.08467 9.40686 3.73995C10.2805 3.44594 11.2975 3.64 12.2041 4.29993C13.1107 3.64 14.1276 3.44594 15.0013 3.73995ZM14.6278 4.84985C14.1187 4.67854 13.3596 4.78937 12.6003 5.4873C12.3763 5.69323 12.0319 5.69323 11.8078 5.4873C11.0485 4.78937 10.2894 4.67854 9.78038 4.84985C9.29206 5.01418 8.88608 5.48558 8.88608 6.31207C8.88608 6.6771 9.10821 7.13631 9.55658 7.65606C9.99087 8.15949 10.5656 8.63718 11.1045 9.02998C11.7627 9.50981 11.9191 9.59978 12.2041 9.59979C12.489 9.59979 12.6454 9.50982 13.3037 9.02999C13.8425 8.63719 14.4173 8.1595 14.8516 7.65607C15.2999 7.13632 15.5221 6.67711 15.5221 6.31206C15.5221 5.48558 15.1161 5.01418 14.6278 4.84985ZM9.61519 13.911C11.0719 13.6288 12.6312 13.6921 13.8929 14.4447C14.0702 14.5504 14.2363 14.6821 14.3812 14.8449C14.6747 15.1745 14.8262 15.5841 14.8334 15.9949C14.9827 15.8985 15.1323 15.7916 15.2842 15.6768L16.6951 14.611C17.4013 14.0775 18.4277 14.0774 19.134 14.6108C19.7866 15.1035 20.0468 15.9879 19.5796 16.7368C19.2475 17.269 18.7475 18.0052 18.2386 18.4765C17.7242 18.953 16.9921 19.3536 16.4382 19.6209C15.7657 19.9455 15.0393 20.125 14.3329 20.2393C12.8892 20.473 11.387 20.4373 9.95954 20.1432C9.23005 19.9929 8.47196 19.9148 7.72278 19.9148H5.95844C5.63506 19.9148 5.37291 19.6526 5.37291 19.3292C5.37291 19.0059 5.63506 18.7437 5.95844 18.7437H7.72278C8.55197 18.7437 9.38923 18.83 10.1958 18.9962C11.4856 19.2619 12.8443 19.294 14.1458 19.0833C14.7929 18.9786 15.3972 18.823 15.9292 18.5663C16.4627 18.3087 17.0626 17.9696 17.4428 17.6174C17.8273 17.2613 18.2577 16.6432 18.586 16.1169C18.6851 15.9581 18.6714 15.7289 18.4283 15.5453C18.1397 15.3274 17.6896 15.3274 17.401 15.5454L15.9901 16.6112C15.4269 17.0367 14.7336 17.4919 13.8738 17.629C13.787 17.6428 13.6967 17.6555 13.6029 17.6667C13.5582 17.6748 13.5116 17.6801 13.4635 17.6819C13.0245 17.7255 12.5161 17.7356 11.9552 17.6827C11.6333 17.6523 11.3969 17.3666 11.4273 17.0447C11.4577 16.7228 11.7434 16.4864 12.0653 16.5168C12.5552 16.5631 12.9946 16.5529 13.3675 16.5146C13.3751 16.5138 13.3826 16.513 13.3901 16.5122C13.4057 16.5032 13.4295 16.4867 13.4607 16.4594C13.7101 16.2417 13.7324 15.8772 13.5066 15.6236C13.4494 15.5593 13.3789 15.5016 13.2931 15.4504C12.3709 14.9004 11.1394 14.8085 9.83793 15.0607C8.54389 15.3114 7.25824 15.8889 6.29715 16.5705C6.03337 16.7575 5.66789 16.6954 5.48082 16.4316C5.29376 16.1678 5.35595 15.8023 5.61973 15.6152C6.71144 14.841 8.15113 14.1946 9.61519 13.911Z" fill="black"/>
</svg>
