<svg width="24" height="24" viewBox="0 0 24 24" fill="none" xmlns="http://www.w3.org/2000/svg">
<path d="M8.30106 6.11222C8.30106 7.32058 9.6485 8.59349 10.7601 9.43799C11.3839 9.91197 11.6959 10.149 12.2046 10.149C12.7133 10.149 13.0252 9.91197 13.6491 9.438C14.7607 8.5935 16.1081 7.3206 16.1081 6.1122C16.1081 3.93391 13.9611 3.12063 12.2046 4.80335C10.4481 3.12063 8.30106 3.93391 8.30106 6.11222Z" fill="black"/>
<path d="M7.72328 19.0399H7.52035C6.78429 19.0399 6.41627 19.0399 6.1876 18.8113C5.95894 18.5826 5.95894 18.2146 5.95894 17.4785V16.6104C5.95894 16.2056 5.95894 16.0032 6.06291 15.8225C6.16689 15.6417 6.32374 15.5505 6.63745 15.368C8.70278 14.1668 11.6359 13.4906 13.5935 14.6582C13.725 14.7367 13.8433 14.8314 13.9444 14.9449C14.3801 15.4343 14.3484 16.173 13.8462 16.6112C13.7402 16.7038 13.6271 16.774 13.5133 16.7984C13.6069 16.7875 13.6965 16.7751 13.7821 16.7615C14.4936 16.648 15.0909 16.2678 15.6377 15.8547L17.0486 14.7889C17.5459 14.4132 18.2842 14.4131 18.7816 14.7887C19.2295 15.1269 19.3665 15.6837 19.0833 16.1376C18.7531 16.6668 18.2879 17.3439 17.8412 17.7576C17.3939 18.172 16.7279 18.5419 16.1842 18.8043C15.5819 19.095 14.9166 19.2625 14.2398 19.372C12.8673 19.5942 11.4368 19.5603 10.0782 19.2804C9.31014 19.1222 8.51246 19.0399 7.72328 19.0399Z" fill="black"/>
</svg>
