<svg width="30" height="30" viewBox="0 0 30 30" fill="none" xmlns="http://www.w3.org/2000/svg">
<path opacity="0.5" d="M5 15C5 10.286 5 7.92893 6.46447 6.46447C7.92893 5 10.286 5 15 5C19.714 5 22.0711 5 23.5355 6.46447C25 7.92893 25 10.286 25 15C25 19.714 25 22.0711 23.5355 23.5355C22.0711 25 19.714 25 15 25C10.286 25 7.92893 25 6.46447 23.5355C5 22.0711 5 19.714 5 15Z" fill="black"/>
<path d="M18.0994 15.0936C17.9145 14.7917 17.7343 14.4973 17.558 14.2865C17.3708 14.0629 17.0427 13.7552 16.541 13.7754C16.0392 13.7955 15.7369 14.1284 15.5682 14.3664C15.4094 14.5905 15.2533 14.8984 15.0933 15.2141L15.0933 15.2142L13.1054 19.1339C13.0303 19.2819 12.9678 19.4052 12.9116 19.5111C12.8432 19.4126 12.7665 19.2976 12.6744 19.1595L12.4976 18.8942C12.2942 18.5891 12.1141 18.3189 11.9414 18.1058C11.7541 17.8747 11.5432 17.6683 11.2589 17.5162C10.9746 17.364 10.6859 17.303 10.3897 17.2754C10.1166 17.2499 9.79189 17.2499 9.42526 17.25L8 17.25C7.58579 17.25 7.25 17.5857 7.25 18C7.25 18.4142 7.58579 18.75 8 18.75H9.39445C9.80113 18.75 10.0553 18.7507 10.2505 18.7689C10.4302 18.7857 10.5038 18.8134 10.5511 18.8387C10.5984 18.864 10.6623 18.9099 10.776 19.0501C10.8994 19.2024 11.041 19.4135 11.2666 19.7519L11.4526 20.031C11.6409 20.3135 11.8261 20.5915 12.0055 20.7898C12.1984 21.003 12.5282 21.2871 13.0153 21.2582C13.5025 21.2293 13.7963 20.9081 13.9626 20.6736C14.1173 20.4554 14.2683 20.1574 14.4218 19.8546L16.4092 15.9357C16.4876 15.7812 16.553 15.6523 16.6119 15.5415C16.6794 15.6472 16.7549 15.7704 16.8454 15.9182L17.4994 16.9859C17.6995 17.3127 17.8766 17.6018 18.0485 17.8299C18.2348 18.0773 18.4477 18.2988 18.7406 18.4629C19.0336 18.6271 19.3337 18.6928 19.642 18.7226C19.9263 18.75 20.2653 18.75 20.6485 18.75L22 18.75C22.4142 18.75 22.75 18.4142 22.75 18C22.75 17.5857 22.4142 17.25 22 17.25H20.6805C20.2557 17.25 19.9897 17.2491 19.786 17.2295C19.5983 17.2114 19.5223 17.1815 19.4737 17.1543C19.4251 17.1271 19.36 17.0779 19.2465 16.9273C19.1233 16.7638 18.9837 16.5374 18.7618 16.1752L18.0994 15.0936Z" fill="black"/>
</svg>
