<svg width="28" height="28" viewBox="0 0 28 28" fill="none" xmlns="http://www.w3.org/2000/svg">
<path fill-rule="evenodd" clip-rule="evenodd" d="M5.76419 10.0693C5.3021 10.9135 5.3021 11.9319 5.3021 13.9686V15.3223C5.3021 18.7941 5.3021 20.53 6.3448 21.6085C7.3875 22.6871 9.0657 22.6871 12.4221 22.6871H15.9821C19.3385 22.6871 21.0167 22.6871 22.0594 21.6085C23.1021 20.53 23.1021 18.7941 23.1021 15.3223V13.9686C23.1021 11.9319 23.1021 10.9135 22.64 10.0693C22.1779 9.22513 21.3337 8.70119 19.6453 7.65332L17.8653 6.5486C16.0805 5.44092 15.1882 4.88708 14.2021 4.88708C13.216 4.88708 12.3237 5.44092 10.5389 6.5486L8.75889 7.65332C7.07048 8.70119 6.22627 9.22513 5.76419 10.0693ZM13.5346 19.1271C13.5346 19.4957 13.8334 19.7946 14.2021 19.7946C14.5707 19.7946 14.8696 19.4957 14.8696 19.1271V16.4571C14.8696 16.0884 14.5707 15.7896 14.2021 15.7896C13.8334 15.7896 13.5346 16.0884 13.5346 16.4571V19.1271Z" fill="black"/>
</svg>
