<svg width="29" height="28" viewBox="0 0 29 28" fill="none" xmlns="http://www.w3.org/2000/svg">
<path d="M5.51747 14.1906C5.51747 12.0548 5.51747 10.9868 6.00205 10.1016C6.48664 9.21625 7.37195 8.6668 9.14256 7.56791L11.0092 6.4094C12.8809 5.2478 13.8167 4.66699 14.8508 4.66699C15.8849 4.66699 16.8207 5.2478 18.6924 6.4094L20.559 7.56791C22.3296 8.6668 23.215 9.21625 23.6995 10.1016C24.1841 10.9868 24.1841 12.0548 24.1841 14.1906V15.6103C24.1841 19.2511 24.1841 21.0715 23.0907 22.2026C21.9972 23.3337 20.2373 23.3337 16.7175 23.3337H12.9841C9.46431 23.3337 7.7044 23.3337 6.61093 22.2026C5.51747 21.0715 5.51747 19.2511 5.51747 15.6103V14.1906Z" stroke="black" stroke-width="1.17106"/>
<path d="M14.8508 16.8003L14.8508 19.6003" stroke="black" stroke-width="1.17106" stroke-linecap="round"/>
</svg>
