<svg width="24" height="17" viewBox="0 0 24 17" fill="none" xmlns="http://www.w3.org/2000/svg">
<path fill-rule="evenodd" clip-rule="evenodd" d="M8.12134 0.878662L1.20711 7.79289C0.816582 8.18342 0.816582 8.81658 1.20711 9.20711L8.12134 16.1213C8.68396 16.684 9.44702 17 10.2427 17H20.5C22.1569 17 23.5 15.6569 23.5 14V3C23.5 1.34314 22.1569 0 20.5 0H10.2427C9.44702 0 8.68396 0.316101 8.12134 0.878662ZM20.5 15.7H10.2427C9.79175 15.7 9.35938 15.5209 9.04053 15.2021L3.0456 9.2071C2.65508 8.81658 2.65508 8.18342 3.0456 7.7929L9.04053 1.79791C9.35938 1.47913 9.79175 1.29999 10.2427 1.29999H20.5C21.4388 1.29999 22.2 2.0611 22.2 3V14C22.2 14.9389 21.4388 15.7 20.5 15.7Z" fill="black"/>
<path d="M11.2143 6.02498C10.9214 5.73207 10.9214 5.25722 11.2143 4.96431C11.5072 4.6714 11.9821 4.6714 12.2749 4.96431L14.7499 7.43922L17.2248 4.96431C17.5176 4.6714 17.9925 4.6714 18.2854 4.96431C18.5783 5.25716 18.5783 5.73207 18.2854 6.02498L15.8105 8.49983L18.2854 10.9747C18.5783 11.2676 18.5783 11.7425 18.2854 12.0354C17.9925 12.3283 17.5176 12.3283 17.2248 12.0354L14.7499 9.5605L12.2749 12.0354C11.9821 12.3283 11.5072 12.3283 11.2144 12.0354C10.9214 11.7424 10.9214 11.2676 11.2144 10.9747L13.6892 8.49989L11.2143 6.02498Z" fill="black"/>
</svg>
