<svg width="27" height="29" viewBox="0 0 27 29" fill="none" xmlns="http://www.w3.org/2000/svg">
<path fill-rule="evenodd" clip-rule="evenodd" d="M13.704 6.68347C11.4305 6.68347 9.58737 8.52657 9.58737 10.8001C9.58737 13.0737 11.4305 14.9168 13.704 14.9168C15.9776 14.9168 17.8207 13.0737 17.8207 10.8001C17.8207 8.52657 15.9776 6.68347 13.704 6.68347ZM10.8874 10.8001C10.8874 9.24454 12.1484 7.98347 13.704 7.98347C15.2596 7.98347 16.5207 9.24454 16.5207 10.8001C16.5207 12.3557 15.2596 13.6168 13.704 13.6168C12.1484 13.6168 10.8874 12.3557 10.8874 10.8001Z" fill="black"/>
<path fill-rule="evenodd" clip-rule="evenodd" d="M13.704 16.2168C11.9366 16.2168 10.3045 16.6248 9.09176 17.3178C7.89736 18.0003 6.98737 19.0423 6.98737 20.3335C6.98737 21.6247 7.89736 22.6666 9.09176 23.3491C10.3045 24.0422 11.9366 24.4501 13.704 24.4501C15.4715 24.4501 17.1035 24.0422 18.3163 23.3491C19.5107 22.6666 20.4207 21.6247 20.4207 20.3335C20.4207 19.0423 19.5107 18.0003 18.3163 17.3178C17.1035 16.6248 15.4715 16.2168 13.704 16.2168ZM8.28737 20.3335C8.28737 19.7101 8.73544 19.0187 9.73674 18.4465C10.7197 17.8849 12.1209 17.5168 13.704 17.5168C15.2871 17.5168 16.6884 17.8849 17.6713 18.4465C18.6726 19.0187 19.1207 19.7101 19.1207 20.3335C19.1207 20.9568 18.6726 21.6482 17.6713 22.2204C16.6884 22.7821 15.2871 23.1501 13.704 23.1501C12.1209 23.1501 10.7197 22.7821 9.73674 22.2204C8.73544 21.6482 8.28737 20.9568 8.28737 20.3335Z" fill="black"/>
</svg>
