<svg width="106" height="97" viewBox="0 0 106 97" fill="none" xmlns="http://www.w3.org/2000/svg">
<path fill-rule="evenodd" clip-rule="evenodd" d="M60.5468 10.565C40.9765 -3.13033 14.0095 1.63226 0.314213 21.2025C-13.381 40.7726 -8.61847 67.7398 10.9517 81.435C30.5219 95.1302 57.4891 90.3676 71.1843 70.7975C84.8796 51.2273 80.1169 24.2601 60.5468 10.565ZM-5.43201 17.1813C10.4841 -5.56251 41.8242 -11.0974 64.568 4.81873C87.3119 20.735 92.8467 52.0749 76.9305 74.8187C61.0143 97.5627 29.6745 103.098 6.93053 87.1813C-15.8133 71.2651 -21.3483 39.9252 -5.43201 17.1813ZM10.7571 53.6063C16.4145 53.4519 22.114 55.0053 27.0366 58.4501C31.9592 61.895 35.3709 66.7176 37.1637 72.0857C37.7775 73.9225 36.7857 75.909 34.9485 76.5225C33.1116 77.1363 31.1251 76.1446 30.5116 74.3073C29.1683 70.2868 26.639 66.7321 23.0154 64.1964C19.3918 61.6606 15.1859 60.5018 10.9484 60.617C9.01234 60.67 7.40006 59.1434 7.34732 57.2072C7.29462 55.2711 8.82119 53.6589 10.7571 53.6063Z" fill="#E1E1E1" fill-opacity="0.19"/>
<path d="M55.0935 50.977C52.8728 54.1505 49.3573 55.5231 47.2415 54.0425C45.1257 52.5618 45.2111 48.7889 47.4319 45.6154C49.6528 42.4419 53.1682 41.0694 55.2839 42.55C57.3997 44.0306 57.3144 47.8035 55.0935 50.977Z" fill="#E1E1E1" fill-opacity="0.19"/>
<path d="M32.1082 34.8921C29.8874 38.0655 26.3719 39.4381 24.2562 37.9575C22.1405 36.4769 22.2258 32.7039 24.4466 29.5305C26.6674 26.3569 30.1829 24.9845 32.2986 26.4651C34.4143 27.9456 34.3291 31.7185 32.1082 34.8921Z" fill="#E1E1E1" fill-opacity="0.19"/>
</svg>
