<svg width="24" height="24" viewBox="0 0 24 24" fill="none" xmlns="http://www.w3.org/2000/svg">
<path fill-rule="evenodd" clip-rule="evenodd" d="M11.3203 4.48936C7.54752 4.48936 4.4891 7.54777 4.4891 11.3205C4.4891 15.0933 7.54752 18.1517 11.3203 18.1517C15.093 18.1517 18.1514 15.0933 18.1514 11.3205C18.1514 7.54777 15.093 4.48936 11.3203 4.48936ZM3.31804 11.3205C3.31804 6.90102 6.90076 3.3183 11.3203 3.3183C15.7398 3.3183 19.3225 6.90102 19.3225 11.3205C19.3225 13.3195 18.5895 15.1473 17.3777 16.5498L19.9317 19.1039C20.1604 19.3326 20.1604 19.7033 19.9317 19.932C19.703 20.1606 19.3323 20.1606 19.1036 19.932L16.5496 17.3779C15.1471 18.5898 13.3193 19.3227 11.3203 19.3227C6.90076 19.3227 3.31804 15.74 3.31804 11.3205Z" fill="white"/>
</svg>
