<svg width="24" height="24" viewBox="0 0 24 24" fill="none" xmlns="http://www.w3.org/2000/svg">
<path fill-rule="evenodd" clip-rule="evenodd" d="M11.7107 8.0021C10.0938 8.0021 8.78302 9.31285 8.78302 10.9297C8.78302 11.8882 9.24384 12.7385 9.95408 13.272V14.0526C9.95408 14.8071 10.5658 15.4188 11.3203 15.4188H12.101C12.8556 15.4188 13.4673 14.8071 13.4673 14.0526V13.272C14.1775 12.7385 14.6383 11.8882 14.6383 10.9297C14.6383 9.31285 13.3276 8.0021 11.7107 8.0021ZM9.95408 10.9297C9.95408 9.95961 10.7405 9.17316 11.7107 9.17316C12.6808 9.17316 13.4673 9.95961 13.4673 10.9297C13.4673 11.5792 13.1151 12.1471 12.5885 12.4517C12.4076 12.5563 12.2962 12.7495 12.2962 12.9585V14.0526C12.2962 14.1604 12.2088 14.2477 12.101 14.2477H11.3203C11.2125 14.2477 11.1251 14.1604 11.1251 14.0526V12.9585C11.1251 12.7495 11.0137 12.5563 10.8328 12.4517C10.3062 12.1471 9.95408 11.5792 9.95408 10.9297Z" fill="#1C274C"/>
<path fill-rule="evenodd" clip-rule="evenodd" d="M11.7107 3.31787C10.9787 3.31787 10.2799 3.55722 9.1526 3.94331L8.58468 4.13772C7.4282 4.53358 6.53569 4.83909 5.89678 5.09865C5.57494 5.2294 5.29824 5.35603 5.07544 5.48543C4.86103 5.60995 4.64593 5.76526 4.49979 5.97347C4.35533 6.17928 4.28064 6.43229 4.23371 6.67585C4.18491 6.92907 4.15549 7.23282 4.1365 7.58158C4.09879 8.27407 4.09879 9.22274 4.09879 10.4532V11.7037C4.09879 16.4668 7.6963 18.7505 9.83567 19.685L9.85683 19.6942C10.1221 19.8102 10.3715 19.9191 10.658 19.9925C10.9605 20.0699 11.2819 20.103 11.7107 20.103C12.1395 20.103 12.4609 20.0699 12.7634 19.9925C13.0499 19.9191 13.2992 19.8102 13.5645 19.6943L13.5857 19.685C15.725 18.7505 19.3225 16.4668 19.3225 11.7037V10.4534C19.3225 9.22282 19.3225 8.2741 19.2848 7.58158C19.2658 7.23282 19.2364 6.92907 19.1876 6.67585C19.1407 6.43229 19.066 6.17928 18.9215 5.97347C18.7754 5.76526 18.5603 5.60995 18.3459 5.48543C18.1231 5.35603 17.8464 5.2294 17.5246 5.09865C16.8856 4.83909 15.9931 4.53358 14.8366 4.13771L14.2687 3.94331C13.1414 3.55722 12.4426 3.31787 11.7107 3.31787ZM9.43149 5.08562C10.692 4.65415 11.1972 4.48893 11.7107 4.48893C12.2242 4.48893 12.7294 4.65415 13.9898 5.08562L14.437 5.2387C15.6179 5.64292 16.4791 5.93795 17.0838 6.18359C17.3856 6.30621 17.6043 6.40895 17.7578 6.4981C17.8336 6.54211 17.8858 6.57842 17.9206 6.60677C17.9502 6.63078 17.9615 6.64439 17.9631 6.64639C17.9646 6.64882 17.9743 6.66504 17.988 6.70343C18.0036 6.74723 18.0209 6.81003 18.0377 6.89745C18.0718 7.07438 18.0977 7.31743 18.1155 7.64525C18.1513 8.30198 18.1515 9.2187 18.1515 10.4743V11.7037C18.1515 15.7439 15.1302 17.7324 13.1169 18.6119C12.8269 18.7386 12.6594 18.8103 12.4729 18.858C12.2949 18.9036 12.0776 18.932 11.7107 18.932C11.3437 18.932 11.1264 18.9036 10.9484 18.858C10.7619 18.8103 10.5945 18.7386 10.3044 18.6119C8.2911 17.7324 5.26985 15.7439 5.26985 11.7037V10.4743C5.26985 9.2187 5.27006 8.30198 5.30582 7.64525C5.32367 7.31743 5.34951 7.07438 5.38361 6.89745C5.40045 6.81003 5.41775 6.74723 5.43335 6.70343C5.44701 6.66507 5.45672 6.64885 5.45823 6.6464C5.45984 6.64441 5.47111 6.6308 5.50068 6.60677C5.53555 6.57842 5.58777 6.54211 5.66355 6.4981C5.81705 6.40895 6.03572 6.3062 6.33753 6.18359C6.94219 5.93795 7.8034 5.64292 8.98429 5.2387L9.43149 5.08562Z" fill="#1C274C"/>
</svg>
