<svg width="106" height="97" viewBox="0 0 106 97" fill="none" xmlns="http://www.w3.org/2000/svg">
<g clip-path="url(#clip0_2851_7146)">
<path fill-rule="evenodd" clip-rule="evenodd" d="M79.9965 73.791C65.9956 100.671 33.8057 111.606 8.09806 98.216C-17.6095 84.8257 -27.0997 52.1805 -13.0988 25.3006C0.90203 -1.57922 33.092 -12.5146 58.7996 0.875629C84.5073 14.266 93.9973 46.9112 79.9965 73.791ZM68.3596 67.7297C57.859 87.8895 33.7164 96.0911 14.4358 86.0484C-4.84493 76.0057 -11.9625 51.5217 -1.46191 31.3619C9.03873 11.202 33.1812 3.00047 52.4619 13.0432C71.7425 23.0858 78.8602 47.5699 68.3596 67.7297ZM20.7734 73.8809C33.627 80.5759 49.7224 75.1081 56.7227 61.6684L10.175 37.4232C3.1747 50.8629 7.91966 67.1858 20.7734 73.8809ZM27.9202 21.1398C29.6621 21.0333 31.3839 21.3978 32.9131 22.1966C34.4422 22.9955 35.7249 24.2006 36.6327 25.6913C37.5403 27.1819 38.0411 28.9057 38.0847 30.6897C38.1305 32.563 36.6849 34.1753 34.8559 34.2908C33.027 34.4062 31.5071 32.9812 31.4614 31.1079C31.4468 30.5132 31.2799 29.9386 30.9773 29.4417C30.6748 28.9449 30.2472 28.5431 29.7375 28.2769C29.2277 28.0106 28.6538 27.8891 28.0732 27.9246C27.4926 27.9601 26.9257 28.1513 26.4293 28.4791C24.8659 29.5118 22.8281 29.0784 21.878 27.511C20.928 25.9438 21.4252 23.8361 22.9887 22.8035C24.4777 21.8201 26.1783 21.2463 27.9202 21.1398ZM56.1866 34.3191C54.6577 33.5204 52.9359 33.1559 51.1941 33.2625C49.4521 33.369 47.7515 33.9427 46.2626 34.9261C44.699 35.9587 44.2018 38.0664 45.1518 39.6337C46.102 41.201 48.1397 41.6344 49.7032 40.6018C50.1995 40.274 50.7664 40.0827 51.347 40.0472C51.9277 40.0117 52.5016 40.1332 53.0114 40.3995C53.5207 40.6656 53.9484 41.0674 54.251 41.5642C54.5536 42.0612 54.7209 42.636 54.7352 43.2305C54.781 45.1039 56.3008 46.5289 58.1296 46.4133C59.959 46.2981 61.4046 44.6858 61.3582 42.8122C61.3147 41.0282 60.8144 39.3047 59.9066 37.8139C58.9988 36.3232 57.7159 35.118 56.1866 34.3191Z" fill="#00D26D"/>
</g>
<defs>
<clipPath id="clip0_2851_7146">
<rect width="104.967" height="109.753" fill="white" transform="translate(12.252 -23.3696) rotate(27.5136)"/>
</clipPath>
</defs>
</svg>
