<svg width="15" height="15" viewBox="0 0 15 15" fill="none" xmlns="http://www.w3.org/2000/svg">
<path d="M13.5 7.50003C13.5 9.09133 12.8679 10.6175 11.7426 11.7427C10.6174 12.8679 9.0913 13.5 7.5 13.5C5.9087 13.5 4.38258 12.8679 3.25736 11.7427C2.13214 10.6175 1.5 9.09133 1.5 7.50003C1.5 5.90873 2.13214 4.38261 3.25736 3.25739C4.38258 2.13217 5.9087 1.50003 7.5 1.50003C8.07 1.50003 8.625 1.58253 9.15 1.73253L10.3275 0.555034C9.43073 0.185708 8.46984 -0.00289985 7.5 3.37015e-05C6.51509 3.37015e-05 5.53982 0.194027 4.62987 0.570937C3.71993 0.947847 2.89314 1.50029 2.1967 2.19673C0.790176 3.60326 0 5.51091 0 7.50003C0 9.48916 0.790176 11.3968 2.1967 12.8033C2.89314 13.4998 3.71993 14.0522 4.62987 14.4291C5.53982 14.806 6.51509 15 7.5 15C9.48912 15 11.3968 14.2099 12.8033 12.8033C14.2098 11.3968 15 9.48916 15 7.50003H13.5ZM4.4325 6.06003L3.375 7.12503L6.75 10.5L14.25 3.00003L13.1925 1.93503L6.75 8.37753L4.4325 6.06003Z" fill="#4CAF50"/>
</svg>
