<svg width="20" height="20" viewBox="0 0 20 20" fill="none" xmlns="http://www.w3.org/2000/svg">
<path fill-rule="evenodd" clip-rule="evenodd" d="M11.132 4.20902C11.3135 4.12918 11.525 4.16414 11.6712 4.29812L15.6712 7.96479C15.8747 8.15138 15.8885 8.46767 15.7019 8.67123C15.5153 8.87479 15.199 8.88854 14.9954 8.70194L11.8333 5.80331L11.8333 15.3334C11.8333 15.6095 11.6094 15.8334 11.3333 15.8334C11.0572 15.8334 10.8333 15.6095 10.8333 15.3334L10.8333 4.6667C10.8333 4.46841 10.9505 4.28886 11.132 4.20902ZM8.66663 4.1667C8.94277 4.1667 9.16663 4.39055 9.16663 4.6667L9.16663 15.3334C9.16663 15.5316 9.04946 15.7112 8.86796 15.791C8.68646 15.8709 8.47493 15.8359 8.32877 15.7019L4.32877 12.0353C4.12521 11.8487 4.11146 11.5324 4.29805 11.3288C4.48465 11.1253 4.80093 11.1115 5.00449 11.2981L8.16663 14.1967L8.16663 4.6667C8.16663 4.39055 8.39049 4.1667 8.66663 4.1667Z" fill="#1C274C"/>
</svg>
