<svg width="14" height="14" viewBox="0 0 14 14" fill="none" xmlns="http://www.w3.org/2000/svg">
<path d="M7.93334 3.26669H6.06668C4.30677 3.26669 3.42681 3.26669 2.88008 3.81343C2.48643 4.20708 2.37621 4.77348 2.34534 5.71669H11.6547C11.6238 4.77348 11.5136 4.20708 11.1199 3.81343C10.5732 3.26669 9.69325 3.26669 7.93334 3.26669Z" fill="white"/>
<path fill-rule="evenodd" clip-rule="evenodd" d="M7.93334 10.7334H6.06668C4.30677 10.7334 3.42681 10.7334 2.88008 10.1866C2.33334 9.63989 2.33334 8.75994 2.33334 7.00003C2.33334 6.79379 2.33334 6.59964 2.33422 6.41669H11.6658C11.6667 6.59964 11.6667 6.79379 11.6667 7.00003C11.6667 8.75994 11.6667 9.63989 11.1199 10.1866C10.5732 10.7334 9.69325 10.7334 7.93334 10.7334ZM8.88756 7.11669C9.08954 7.11667 9.27473 7.11665 9.42537 7.1369C9.59126 7.1592 9.7666 7.21168 9.91081 7.35589C10.055 7.5001 10.1075 7.67544 10.1298 7.84133C10.1501 7.99198 10.15 8.17716 10.15 8.37915V8.42091C10.15 8.62289 10.1501 8.80808 10.1298 8.95872C10.1075 9.12461 10.055 9.29995 9.91081 9.44416C9.7666 9.58837 9.59126 9.64085 9.42537 9.66315C9.27473 9.68341 9.08954 9.68339 8.88756 9.68336L8.86668 9.68336L8.8458 9.68336C8.64381 9.68339 8.45863 9.68341 8.30798 9.66315C8.14209 9.64085 7.96675 9.58837 7.82254 9.44416C7.67833 9.29995 7.62585 9.12461 7.60355 8.95872C7.5833 8.80808 7.58332 8.62289 7.58334 8.42091L7.58334 8.40003L7.58334 8.37915C7.58332 8.17716 7.5833 7.99198 7.60355 7.84133C7.62585 7.67544 7.67833 7.5001 7.82254 7.35589C7.96675 7.21168 8.14209 7.1592 8.30798 7.1369C8.45862 7.11665 8.64381 7.11667 8.84579 7.11669H8.88756ZM3.85001 7.70003C3.85001 7.50673 4.00671 7.35003 4.20001 7.35003H5.13334C5.32664 7.35003 5.48334 7.50673 5.48334 7.70003C5.48334 7.89333 5.32664 8.05003 5.13334 8.05003H4.20001C4.00671 8.05003 3.85001 7.89333 3.85001 7.70003ZM3.85001 9.10003C3.85001 8.90673 4.00671 8.75003 4.20001 8.75003H6.06668C6.25998 8.75003 6.41668 8.90673 6.41668 9.10003C6.41668 9.29333 6.25998 9.45003 6.06668 9.45003H4.20001C4.00671 9.45003 3.85001 9.29333 3.85001 9.10003Z" fill="white"/>
<path d="M8.31754 7.85084L8.31866 7.85023C8.31956 7.84976 8.32111 7.849 8.32346 7.84803C8.33362 7.84385 8.35619 7.83672 8.40125 7.83066C8.49959 7.81744 8.63679 7.81669 8.86668 7.81669C9.09656 7.81669 9.23376 7.81744 9.3321 7.83066C9.37716 7.83672 9.39973 7.84385 9.40989 7.84803C9.41225 7.849 9.41379 7.84976 9.4147 7.85023L9.41583 7.85087L9.41647 7.85201C9.41695 7.85291 9.4177 7.85446 9.41867 7.85681C9.42285 7.86697 9.42999 7.88954 9.43605 7.9346C9.44927 8.03294 9.45001 8.17014 9.45001 8.40003C9.45001 8.62991 9.44927 8.76711 9.43605 8.86545C9.42999 8.91051 9.42285 8.93308 9.41867 8.94324C9.4177 8.9456 9.41695 8.94714 9.41647 8.94805L9.41583 8.94918L9.4147 8.94982C9.41379 8.9503 9.41225 8.95105 9.40989 8.95202C9.39973 8.9562 9.37716 8.96334 9.3321 8.9694C9.23376 8.98262 9.09656 8.98336 8.86668 8.98336C8.63679 8.98336 8.49959 8.98262 8.40125 8.9694C8.35619 8.96334 8.33362 8.9562 8.32346 8.95202C8.32111 8.95105 8.31956 8.9503 8.31866 8.94982L8.31752 8.94918L8.31688 8.94805C8.31641 8.94714 8.31565 8.9456 8.31468 8.94324C8.3105 8.93308 8.30337 8.91051 8.29731 8.86545C8.28409 8.76711 8.28334 8.62991 8.28334 8.40003C8.28334 8.17014 8.28409 8.03294 8.29731 7.9346C8.30337 7.88954 8.3105 7.86697 8.31468 7.85681C8.31565 7.85446 8.31641 7.85291 8.31688 7.85201L8.31754 7.85084Z" fill="white"/>
</svg>
